<svg width="150" height="142" viewBox="0 0 150 142" fill="none" xmlns="http://www.w3.org/2000/svg">
<g clip-path="url(#clip0_4_1422)">
<path d="M75.0093 67.3526C75.0093 67.3526 69.7773 61.1628 62.098 54.6004C53.0985 46.9091 46.4343 33.321 54.8967 19.0599C63.3591 4.79875 82.7829 5.44501 91.9757 14.6618C101.168 23.8786 100.295 38.872 95.3105 46.4717C90.3272 54.0706 80.3698 61.2164 75.0093 67.3526Z" fill="#EAB938"/>
<path d="M72.8838 71.3254C72.8838 71.3254 74.0469 68.5471 74.1245 67.0383L74.9122 68.1949L75.9283 67.2435C75.9283 67.2435 76.0938 69.8711 76.9342 71.575C76.9342 71.575 76.7096 71.7941 76.374 71.6388C75.9385 71.4382 75.8932 70.9694 75.8932 70.9694C75.8932 70.9694 75.7092 71.7997 74.8549 71.6832C74.1338 71.5852 73.8518 70.914 73.8518 70.914C73.8518 70.914 73.5689 71.6665 72.8838 71.3254Z" fill="#DEAF35"/>
<path d="M74.8161 108.385C77.8005 100.427 77.3835 92.5456 76.005 84.7757C75.1073 79.723 74.2604 74.9505 74.7893 71.049L75.0703 71.0859C74.547 74.9441 75.3902 79.6962 76.2833 84.7267C77.6692 92.5382 79.2419 101.392 75.7831 108.633C68.6734 123.518 70.3588 135.826 73.1889 142.225C73.1889 142.225 66.0579 131.735 74.8161 108.385Z" fill="#DEAF35"/>
<path d="M75.9255 43.4235C75.9255 43.4235 71.7586 41.9285 70.3625 38.8822C68.9665 35.8358 74.3372 38.6686 74.3372 38.6686C74.3372 38.6686 73.8185 35.1026 75.8913 34.7171C77.9642 34.3306 75.9255 43.4235 75.9255 43.4235Z" fill="white"/>
<path d="M87.4981 40.0739C87.4981 40.0739 86.2675 33.922 87.9169 32.169C89.5672 30.4161 90.55 34.5738 90.55 34.5738C90.55 34.5738 91.8546 32.6609 93.9977 33.6243C96.1408 34.5867 90.0988 39.0791 87.4981 40.0739Z" fill="white"/>
<path d="M70.6954 29.9104C70.6954 29.9104 67.5187 25.7786 68.3803 24.1957C69.2429 22.6138 70.6529 25.3782 70.6529 25.3782C70.6529 25.3782 71.5413 23.3174 73.3488 23.9359C75.1563 24.5554 70.6954 29.9104 70.6954 29.9104Z" fill="white"/>
<path d="M78.2952 58.7894C78.2952 58.7894 73.6595 58.1192 73.2536 56.871C72.8477 55.6229 75.8118 55.7801 75.8118 55.7801C75.8118 55.7801 75.3274 53.3476 76.7669 52.9047C78.2064 52.4619 78.2952 58.7894 78.2952 58.7894Z" fill="white"/>
<path d="M59.6924 38.5521C59.6924 38.5521 54.8459 39.1919 54.3809 37.2799C53.9158 35.368 56.8133 35.8986 56.8133 35.8986C56.8133 35.8986 55.592 32.9891 56.7005 32.684C58.999 32.0507 59.6924 38.5521 59.6924 38.5521Z" fill="white"/>
<path d="M83.5327 22.3106C83.5327 22.3106 82.7496 18.3997 83.4957 16.7883C84.2418 15.1768 85.7294 17.3781 85.6693 18.5079C85.6693 18.5079 86.9508 17.5852 88.1952 18.972C89.4406 20.3589 83.5327 22.3106 83.5327 22.3106Z" fill="white"/>
<path d="M71.5182 14.414C71.5182 14.414 67.8848 13.3776 67.8099 12.2755C67.6906 10.5244 70.48 11.3084 70.48 11.3084C70.48 11.3084 71.8363 9.75241 73.089 10.8221C74.0598 11.6505 71.5182 14.414 71.5182 14.414Z" fill="white"/>
<path d="M65.2896 51.3524C65.2896 51.3524 61.2974 50.9992 60.4588 49.0198C59.6203 47.0403 63.3813 48.184 63.3813 48.184C63.3813 48.184 63.1724 45.0119 64.6461 44.8066C66.1198 44.6014 65.2896 51.3524 65.2896 51.3524Z" fill="white"/>
<path d="M82.4686 51.2729C82.4686 51.2729 81.8038 48.6897 82.6655 47.5553C83.5281 46.4218 84.2603 48.6305 84.2603 48.6305C84.2603 48.6305 85.6425 48.0823 86.3211 49.2075C87.0016 50.3336 82.4686 51.2729 82.4686 51.2729Z" fill="white"/>
<path d="M60.8249 25.2108C60.8249 25.2108 56.2336 25.4863 55.6937 24.0893C55.1547 22.6923 58.7946 22.5555 58.7946 22.5555C58.7946 22.5555 58.582 19.2965 59.8754 19.0737C61.9714 18.7131 60.8249 25.2108 60.8249 25.2108Z" fill="white"/>
</g>
<defs>
<clipPath id="clip0_4_1422">
<rect width="150" height="142" fill="white"/>
</clipPath>
</defs>
</svg>
