<svg width="150" height="142" viewBox="0 0 150 142" fill="none" xmlns="http://www.w3.org/2000/svg">
<g clip-path="url(#clip0_4_1400)">
<path d="M75.0621 71.9561C75.0621 71.9561 69.6011 65.4951 61.5851 58.6441C52.1911 50.6151 45.2341 36.4311 54.0671 21.5451C62.9001 6.65809 83.1761 7.33309 92.7721 16.9541C102.368 26.5751 101.456 42.2261 96.2541 50.1591C91.0511 58.0921 80.6581 65.5501 75.0621 71.9561Z" fill="#8CCEDC"/>
<path d="M72.8431 76.1031C72.8431 76.1031 74.0571 73.2031 74.1381 71.6281L74.9612 72.8351L76.0221 71.8421C76.0221 71.8421 76.1951 74.5841 77.0721 76.3631C77.0721 76.3631 76.8382 76.5921 76.4872 76.4301C76.0332 76.2201 75.9851 75.7311 75.9851 75.7311C75.9851 75.7311 75.7931 76.5971 74.9011 76.4761C74.1481 76.3731 73.8541 75.6731 73.8541 75.6731C73.8541 75.6731 73.5581 76.4591 72.8431 76.1031Z" fill="#83C1CF"/>
<path d="M74.8601 114.788C77.9761 106.481 77.5402 98.2541 76.1012 90.1431C75.1642 84.8681 74.2802 79.8861 74.8312 75.8141L75.1251 75.8531C74.5791 79.8811 75.4591 84.8401 76.3911 90.0921C77.8381 98.2461 79.4791 107.488 75.8691 115.047C68.4481 130.585 70.2062 143.434 73.1612 150.113C73.1612 150.113 65.7171 139.162 74.8601 114.788Z" fill="#83C1CF"/>
<path d="M76.0181 46.9771C76.0181 46.9771 71.6681 45.4161 70.2111 42.2361C68.7541 39.0561 74.3601 42.0131 74.3601 42.0131C74.3601 42.0131 73.8191 38.2901 75.9821 37.8881C78.1471 37.4851 76.0181 46.9771 76.0181 46.9771Z" fill="white"/>
<path d="M88.0982 43.4801C88.0982 43.4801 86.8132 37.0581 88.5362 35.2281C90.2582 33.3981 91.2842 37.7381 91.2842 37.7381C91.2842 37.7381 92.6462 35.7421 94.8832 36.7471C97.1202 37.7531 90.8132 42.4421 88.0982 43.4801Z" fill="white"/>
<path d="M70.5591 32.8721C70.5591 32.8721 67.2431 28.5591 68.1431 26.9071C69.0431 25.2551 70.5151 28.1411 70.5151 28.1411C70.5151 28.1411 71.4421 25.9891 73.3291 26.6361C75.2151 27.2821 70.5591 32.8721 70.5591 32.8721Z" fill="white"/>
<path d="M78.4922 63.0171C78.4922 63.0171 73.6532 62.3171 73.2302 61.0141C72.8072 59.7111 75.9012 59.8751 75.9012 59.8751C75.9012 59.8751 75.3952 57.3361 76.8972 56.8741C78.3992 56.4121 78.4922 63.0171 78.4922 63.0171Z" fill="white"/>
<path d="M59.0732 41.8921C59.0732 41.8921 54.0141 42.5601 53.5281 40.5641C53.0421 38.5681 56.0671 39.1231 56.0671 39.1231C56.0671 39.1231 54.7922 36.0861 55.9502 35.7671C58.3492 35.1061 59.0732 41.8921 59.0732 41.8921Z" fill="white"/>
<path d="M83.9591 24.9381C83.9591 24.9381 83.1411 20.8561 83.9201 19.1731C84.6991 17.4901 86.2511 19.7891 86.1891 20.9681C86.1891 20.9681 87.5271 20.0051 88.8261 21.4531C90.1251 22.9011 83.9591 24.9381 83.9591 24.9381Z" fill="white"/>
<path d="M71.4181 16.6951C71.4181 16.6951 67.6251 15.6131 67.5471 14.4631C67.4221 12.6351 70.3341 13.4531 70.3341 13.4531C70.3341 13.4531 71.7501 11.8291 73.0581 12.9451C74.0711 13.8101 71.4181 16.6951 71.4181 16.6951Z" fill="white"/>
<path d="M64.9151 55.2541C64.9151 55.2541 60.7481 54.8851 59.8721 52.8191C58.9961 50.7531 62.9231 51.9471 62.9231 51.9471C62.9231 51.9471 62.7051 48.6351 64.2431 48.4211C65.7821 48.2071 64.9151 55.2541 64.9151 55.2541Z" fill="white"/>
<path d="M82.8481 55.1711C82.8481 55.1711 82.1541 52.4741 83.0541 51.2911C83.9541 50.1071 84.7181 52.4141 84.7181 52.4141C84.7181 52.4141 86.1601 51.8411 86.8701 53.0161C87.5801 54.1901 82.8481 55.1711 82.8481 55.1711Z" fill="white"/>
<path d="M60.2551 27.9661C60.2551 27.9661 55.4621 28.2541 54.8991 26.7951C54.3361 25.3371 58.1361 25.1931 58.1361 25.1931C58.1361 25.1931 57.9141 21.7911 59.2651 21.5591C61.4521 21.1831 60.2551 27.9661 60.2551 27.9661Z" fill="white"/>
<mask id="mask0_4_1400" style="mask-type:luminance" maskUnits="userSpaceOnUse" x="50" y="10" width="51" height="62">
<path d="M75.0621 71.9561C75.0621 71.9561 69.6011 65.4951 61.5851 58.6441C52.1911 50.6151 45.2341 36.4311 54.0671 21.5451C62.9001 6.65809 83.1761 7.33309 92.7721 16.9541C102.368 26.5751 101.456 42.2261 96.2541 50.1591C91.0511 58.0921 80.6581 65.5501 75.0621 71.9561Z" fill="white"/>
</mask>
<g mask="url(#mask0_4_1400)">
<path opacity="0.05" d="M49.3701 24.2501C49.3701 24.2501 48.5841 41.8561 67.8331 52.2461C87.0821 62.6361 104.116 56.2991 104.116 56.2991L71.3111 81.4521C71.3111 81.4521 38.5451 52.8211 49.3701 24.2501Z" fill="black"/>
</g>
</g>
<defs>
<clipPath id="clip0_4_1400">
<rect width="150" height="142" fill="white"/>
</clipPath>
</defs>
</svg>
