<svg width="150" height="142" viewBox="0 0 150 142" fill="none" xmlns="http://www.w3.org/2000/svg">
<path d="M75.4921 64.697C75.4921 64.697 79.9611 59.4099 86.5204 53.8045C94.2075 47.2348 99.8998 35.6284 92.6716 23.447C85.4433 11.2656 68.8521 11.8176 61 19.6903C53.1478 27.563 53.8941 40.3698 58.1515 46.8613C62.4088 53.352 70.9133 59.4549 75.4921 64.697Z" fill="#EB5F7C"/>
<path d="M77.3084 68.0905C77.3084 68.0905 76.315 65.7173 76.2486 64.4285L75.5758 65.4165L74.7079 64.6038C74.7079 64.6038 74.5665 66.8482 73.8487 68.3037C73.8487 68.3037 74.0406 68.4908 74.3273 68.3582C74.6992 68.1868 74.7379 67.7864 74.7379 67.7864C74.7379 67.7864 74.8951 68.4956 75.6248 68.3961C76.2407 68.3124 76.4816 67.739 76.4816 67.739C76.4816 67.739 76.7232 68.3819 77.3084 68.0905Z" fill="#DE5A75"/>
<path d="M75.6579 99.7462C73.1087 92.9491 73.4649 86.2168 74.6424 79.58C75.4092 75.2642 76.1326 71.1877 75.6808 67.8551L75.4408 67.8867C75.8877 71.1822 75.1675 75.2413 74.4046 79.5382C73.2209 86.2105 71.8776 93.7728 74.8319 99.9579C80.9048 112.672 79.4652 123.186 77.0478 128.651C77.0478 128.651 83.1389 119.691 75.6579 99.7462Z" fill="#DE5A75"/>
<path d="M74.7103 44.2576C74.7103 44.2576 78.2695 42.9806 79.462 40.3785C80.6537 37.7764 76.067 40.1961 76.067 40.1961C76.067 40.1961 76.51 37.1501 74.7395 36.8208C72.9682 36.4907 74.7103 44.2576 74.7103 44.2576Z" fill="white"/>
<path d="M64.8254 41.3964C64.8254 41.3964 65.8765 36.1417 64.4676 34.6444C63.058 33.1471 62.2185 36.6984 62.2185 36.6984C62.2185 36.6984 61.1042 35.0645 59.2737 35.8874C57.4431 36.7095 62.6039 40.5467 64.8254 41.3964Z" fill="white"/>
<path d="M79.1777 32.7151C79.1777 32.7151 81.8911 29.1859 81.1551 27.8339C80.4183 26.4827 79.214 28.8439 79.214 28.8439C79.214 28.8439 78.4551 27.0836 76.9112 27.612C75.3673 28.1411 79.1777 32.7151 79.1777 32.7151Z" fill="white"/>
<path d="M72.6862 57.3827C72.6862 57.3827 76.6459 56.8101 76.9925 55.744C77.3392 54.6779 74.8074 54.8122 74.8074 54.8122C74.8074 54.8122 75.2212 52.7344 73.9916 52.3569C72.762 51.9779 72.6862 57.3827 72.6862 57.3827Z" fill="white"/>
<path d="M88.576 40.0966C88.576 40.0966 92.7157 40.6431 93.113 39.0099C93.5102 37.3768 91.0352 37.8301 91.0352 37.8301C91.0352 37.8301 92.0784 35.3449 91.1316 35.0843C89.1675 34.5433 88.576 40.0966 88.576 40.0966Z" fill="white"/>
<path d="M68.2124 26.2236C68.2124 26.2236 68.8813 22.8831 68.244 21.5066C67.6067 20.1302 66.3361 22.0105 66.3874 22.9755C66.3874 22.9755 65.2928 22.1874 64.2299 23.3719C63.1661 24.5565 68.2124 26.2236 68.2124 26.2236Z" fill="white"/>
<path d="M78.4741 19.4787C78.4741 19.4787 81.5776 18.5934 81.6416 17.6521C81.7435 16.1563 79.3609 16.826 79.3609 16.826C79.3609 16.826 78.2024 15.4969 77.1323 16.4098C76.3031 17.1182 78.4741 19.4787 78.4741 19.4787Z" fill="white"/>
<path d="M83.7951 51.0302C83.7951 51.0302 87.2051 50.7285 87.9214 49.0378C88.6377 47.347 85.4251 48.3239 85.4251 48.3239C85.4251 48.3239 85.6036 45.6144 84.3448 45.439C83.0859 45.2645 83.7951 51.0302 83.7951 51.0302Z" fill="white"/>
<path d="M69.1206 50.9623C69.1206 50.9623 69.6884 48.7558 68.9524 47.7876C68.2156 46.8194 67.5901 48.7061 67.5901 48.7061C67.5901 48.7061 66.4095 48.2378 65.8299 49.1989C65.2494 50.1599 69.1206 50.9623 69.1206 50.9623Z" fill="white"/>
<path d="M87.6087 28.701C87.6087 28.701 91.5304 28.9363 91.9916 27.743C92.4528 26.5498 89.3429 26.4329 89.3429 26.4329C89.3429 26.4329 89.5246 23.6492 88.4197 23.4588C86.6295 23.1508 87.6087 28.701 87.6087 28.701Z" fill="white"/>
<mask id="mask0_4_1396" style="mask-type:luminance" maskUnits="userSpaceOnUse" x="55" y="14" width="41" height="51">
<path d="M75.4921 64.697C75.4921 64.697 79.9611 59.4099 86.5204 53.8045C94.2075 47.2348 99.8998 35.6284 92.6716 23.447C85.4433 11.2656 68.8521 11.8176 61 19.6903C53.1478 27.563 53.8941 40.3698 58.1515 46.8613C62.4088 53.352 70.9133 59.4549 75.4921 64.697Z" fill="white"/>
</mask>
<g mask="url(#mask0_4_1396)">
<path opacity="0.05" d="M96.5159 25.6606C96.5159 25.6606 97.1587 40.0666 81.4078 48.5686C65.6569 57.0707 51.7184 51.8855 51.7184 51.8855L78.5617 72.4678C78.5617 72.4678 105.373 49.0393 96.5159 25.6606Z" fill="black"/>
</g>
</svg>
