<svg width="150" height="142" viewBox="0 0 150 142" fill="none" xmlns="http://www.w3.org/2000/svg">
<path d="M107.091 56.873C109.242 50.2118 108.991 48.5816 108.991 48.5816C104.339 42.7251 96.863 38.2376 96.863 38.2376C96.863 38.2376 87.6551 34.8174 80.1758 34.9234C80.1758 34.9234 78.253 35.5236 74.4582 41.4054C71.462 46.0482 51.062 82.5278 42.599 97.6938C39.6178 103.035 40.9061 109.72 45.6235 113.615C48.3614 115.875 52.2205 118.386 57.656 120.956C62.9109 123.455 67.4626 124.629 71.147 125.106C76.9214 125.852 82.4435 122.513 84.5141 117.07C90.7901 100.582 105.408 62.0875 107.091 56.873Z" fill="#8CCEDC"/>
<mask id="mask0_4_1355" style="mask-type:luminance" maskUnits="userSpaceOnUse" x="85" y="17" width="24" height="29">
<path d="M102.073 33.3096C103.881 29.046 107.595 27.4919 108.316 23.3492C109.197 18.2884 102.624 14.6891 98.638 18.7617C95.6971 21.7668 97.0362 25.802 94.8805 29.8999C91.9709 35.431 86.3995 32.4258 85.0992 36.7626C85.0992 36.7626 87.5878 40.5455 93.2607 42.8565C98.641 45.784 102.952 45.2241 102.952 45.2241C105.487 41.4741 99.6352 39.0631 102.073 33.3096Z" fill="white"/>
</mask>
<g mask="url(#mask0_4_1355)">
<path d="M102.073 33.3096C103.881 29.046 107.595 27.4919 108.316 23.3492C109.197 18.2884 102.624 14.6891 98.638 18.7617C95.6971 21.7668 97.0362 25.802 94.8805 29.8999C91.9709 35.431 86.3995 32.4258 85.0992 36.7626C85.0992 36.7626 87.5878 40.5455 93.2607 42.8565C98.641 45.784 102.952 45.2241 102.952 45.2241C105.487 41.4741 99.6352 39.0631 102.073 33.3096Z" fill="#EAB938"/>
</g>
<mask id="mask1_4_1355" style="mask-type:luminance" maskUnits="userSpaceOnUse" x="85" y="17" width="24" height="29">
<path d="M102.073 33.3096C103.881 29.046 107.595 27.4919 108.316 23.3492C109.197 18.2884 102.624 14.6891 98.638 18.7617C95.6971 21.7668 97.0362 25.802 94.8805 29.8999C91.9709 35.431 86.3995 32.4258 85.0992 36.7626C85.0992 36.7626 87.5878 40.5455 93.2607 42.8565C98.641 45.784 102.952 45.2241 102.952 45.2241C105.487 41.4741 99.6352 39.0631 102.073 33.3096Z" fill="white"/>
</mask>
<g mask="url(#mask1_4_1355)">
<path opacity="0.1" d="M91.5514 44.4284C91.5514 44.4284 93.7981 40.962 95.3657 41.0994C96.9317 41.2367 99.3949 39.8663 99.6651 36.4909C99.9353 33.114 101.606 29.9716 104.586 27.7651C107.567 25.5602 108.285 19.9709 105.341 17.1255C105.341 17.1255 110.541 19.4081 109.809 24.1375C109.078 28.8668 104.18 31.6809 104.056 35.1279C103.933 38.5749 105.186 43.579 103.782 46.5393L91.5514 44.4284Z" fill="black"/>
</g>
<path d="M79.8056 36.0714C81.3462 38.5107 83.4377 40.0753 85.6606 41.8682C85.989 42.1324 86.4175 41.6368 86.0891 41.3725C83.9214 39.6244 81.8553 38.0897 80.3475 35.7027C80.1206 35.3444 79.5802 35.7161 79.8056 36.0714Z" fill="white"/>
<path d="M87.2534 43.0445C89.0493 44.0925 90.887 45.0554 92.7695 45.9392C93.1517 46.1183 93.4323 45.5272 93.0501 45.3465C91.1676 44.4643 89.3299 43.4999 87.534 42.4519C87.1698 42.2384 86.8921 42.8326 87.2534 43.0445Z" fill="white"/>
<path d="M98.8768 21.5205C99.5546 19.329 101.704 18.1899 103.903 18.7393C104.312 18.8408 104.424 18.1959 104.017 18.0944C101.439 17.451 99.0082 18.8946 98.2319 21.4085C98.1065 21.8086 98.7529 21.9191 98.8768 21.5205Z" fill="#FAE3A7"/>
<path d="M100.856 20.78C101.033 20.5068 101.307 20.3232 101.625 20.2575C102.033 20.1739 101.982 19.5201 101.569 19.6052C100.997 19.7231 100.582 20.0097 100.265 20.4994C100.037 20.8517 100.631 21.1294 100.856 20.78Z" fill="#FAE3A7"/>
<path d="M71.662 48.6279C72.6861 49.9476 73.8954 51.0523 75.2972 51.9614C75.6495 52.1899 75.9271 51.5957 75.5778 51.3688C74.2775 50.5238 73.1534 49.4818 72.2039 48.2577C71.9457 47.9262 71.4038 48.295 71.662 48.6279Z" fill="white"/>
<path d="M76.7466 53.0273C77.611 53.7066 78.4619 54.5038 79.5233 54.8561C79.9189 54.9875 80.2041 54.3963 79.804 54.2634C78.7963 53.929 77.9961 53.1766 77.175 52.5317C76.8436 52.2705 76.4152 52.7661 76.7466 53.0273Z" fill="white"/>
<path d="M45.0966 97.113C46.3252 99.1717 47.7957 101.041 49.496 102.729C49.7961 103.026 50.2216 102.529 49.9245 102.234C48.26 100.581 46.8402 98.7566 45.6385 96.7443C45.4205 96.38 44.8801 96.7517 45.0966 97.113Z" fill="white"/>
<path d="M50.8231 104.215C51.9726 105.233 53.1281 106.225 54.4224 107.057C54.7762 107.284 55.0539 106.69 54.703 106.464C53.461 105.666 52.3533 104.694 51.2515 103.717C50.9336 103.437 50.5066 103.934 50.8231 104.215Z" fill="white"/>
<mask id="mask2_4_1355" style="mask-type:luminance" maskUnits="userSpaceOnUse" x="41" y="34" width="68" height="92">
<path d="M107.091 56.873C109.242 50.2118 108.991 48.5816 108.991 48.5816C104.339 42.7251 96.863 38.2376 96.863 38.2376C96.863 38.2376 87.6551 34.8174 80.1758 34.9234C80.1758 34.9234 78.253 35.5236 74.4582 41.4054C71.462 46.0482 51.062 82.5278 42.599 97.6938C39.6178 103.035 40.9061 109.72 45.6235 113.615C48.3614 115.875 52.2205 118.386 57.656 120.956C62.9109 123.455 67.4626 124.629 71.147 125.106C76.9214 125.852 82.4435 122.513 84.5141 117.07C90.7901 100.582 105.408 62.0875 107.091 56.873Z" fill="white"/>
</mask>
<g mask="url(#mask2_4_1355)">
<path d="M73.122 28.7444C73.122 28.7444 83.8169 52.5854 114.939 50.4984L108.998 62.6891C108.998 62.6891 84.8693 63.9625 65.9712 40.0454L73.122 28.7444Z" fill="#EB5F7C"/>
<path d="M87.2355 115.438C73.7863 119.336 61.394 112.133 61.394 112.133C61.394 112.133 47.9523 107.091 42.4541 94.2124L39.0981 97.758C39.0981 97.758 41.8584 108.474 59.1488 116.87C76.5944 124.939 86.5935 120.27 86.5935 120.27L87.2355 115.438Z" fill="#EB5F7C"/>
</g>
<mask id="mask3_4_1355" style="mask-type:luminance" maskUnits="userSpaceOnUse" x="41" y="34" width="68" height="92">
<path d="M107.091 56.873C109.242 50.2118 108.991 48.5816 108.991 48.5816C104.339 42.7251 96.863 38.2376 96.863 38.2376C96.863 38.2376 87.6551 34.8174 80.1758 34.9234C80.1758 34.9234 78.253 35.5236 74.4582 41.4054C71.462 46.0482 51.062 82.5278 42.599 97.6938C39.6178 103.035 40.9061 109.72 45.6235 113.615C48.3614 115.875 52.2205 118.386 57.656 120.956C62.9109 123.455 67.4626 124.629 71.147 125.106C76.9214 125.852 82.4435 122.513 84.5141 117.07C90.7901 100.582 105.408 62.0875 107.091 56.873Z" fill="white"/>
</mask>
<g mask="url(#mask3_4_1355)">
<path opacity="0.1" d="M41.318 88.9621C41.318 88.9621 46.443 102.646 58.2157 109.661C69.9884 116.676 77.6289 111.41 75.2135 108.008C72.7965 104.607 75.0104 100.681 78.2723 100.938C81.5342 101.195 87.4654 100.954 86.4189 97.7192C85.3739 94.4842 87.443 90.4743 90.2212 89.3741C92.9994 88.2738 90.6198 80.3811 82.2478 78.6688C73.8744 76.9565 77.3124 70.046 85.3679 72.0912C93.4219 74.1365 96.436 71.8598 94.4415 69.9475C92.4471 68.0351 91.0915 62.3981 96.2509 63.0714C101.41 63.7446 104.733 54.5232 101.355 51.7943C97.9751 49.0653 83.0017 49.2101 73.8609 35.858L78.35 26.3873L117.823 45.0973L83.1017 136.199L27.2344 113.829L41.318 88.9621Z" fill="black"/>
</g>
</svg>
