<svg width="150" height="142" viewBox="0 0 150 142" fill="none" xmlns="http://www.w3.org/2000/svg">
<mask id="mask0_4_1402" style="mask-type:luminance" maskUnits="userSpaceOnUse" x="17" y="17" width="122" height="100">
<path d="M84.2557 17C84.2557 17 82.0949 51.8724 78.7009 64.2154C78.7009 64.2154 36.1128 60.4883 23.7698 75.4664C11.4268 90.4467 16.364 117.603 54.7843 116.986C93.2047 116.368 112.03 120.997 122.214 98.4701C132.399 75.9428 138.571 24.8021 138.571 24.8021L84.2557 17Z" fill="white"/>
</mask>
<g mask="url(#mask0_4_1402)">
<path d="M84.2557 17C84.2557 17 82.0949 51.8724 78.7009 64.2154C78.7009 64.2154 36.1128 60.4883 23.7698 75.4664C11.4268 90.4467 16.364 117.603 54.7843 116.986C93.2047 116.368 112.03 120.997 122.214 98.4701C132.399 75.9428 138.571 24.8021 138.571 24.8021L84.2557 17Z" fill="#8CCEDC"/>
</g>
<mask id="mask1_4_1402" style="mask-type:luminance" maskUnits="userSpaceOnUse" x="17" y="17" width="122" height="100">
<path d="M84.2557 17C84.2557 17 82.0949 51.8724 78.7009 64.2154C78.7009 64.2154 36.1128 60.4883 23.7698 75.4664C11.4268 90.4467 16.364 117.603 54.7843 116.986C93.2047 116.368 112.03 120.997 122.214 98.4701C132.399 75.9428 138.571 24.8021 138.571 24.8021L84.2557 17Z" fill="white"/>
</mask>
<g mask="url(#mask1_4_1402)">
<path d="M67.3234 16.5131C67.3234 16.5131 106.595 43.6845 153.012 30.3781L150.349 46.8214C150.349 46.8214 108.895 62.9927 62.0299 32.1004L67.3234 16.5131Z" fill="#EB5F7C"/>
<path d="M117.663 143.141C133.513 143.141 146.363 130.292 146.363 114.441C146.363 98.5907 133.513 85.7413 117.663 85.7413C101.813 85.7413 88.9632 98.5907 88.9632 114.441C88.9632 130.292 101.813 143.141 117.663 143.141Z" fill="#EB5F7C"/>
<path d="M39.0896 97.9299C42.732 82.5042 33.1798 67.0465 17.7541 63.404C2.32844 59.7616 -13.1294 69.3138 -16.7718 84.7395C-20.4143 100.165 -10.862 115.623 4.56368 119.265C19.9894 122.908 35.4471 113.356 39.0896 97.9299Z" fill="#EB5F7C"/>
</g>
<mask id="mask2_4_1402" style="mask-type:luminance" maskUnits="userSpaceOnUse" x="17" y="17" width="122" height="100">
<path d="M84.2557 17C84.2557 17 82.0949 51.8724 78.7009 64.2154C78.7009 64.2154 36.1128 60.4883 23.7698 75.4664C11.4268 90.4467 16.364 117.603 54.7843 116.986C93.2047 116.368 112.03 120.997 122.214 98.4701C132.399 75.9428 138.571 24.8021 138.571 24.8021L84.2557 17Z" fill="white"/>
</mask>
<g mask="url(#mask2_4_1402)">
<path opacity="0.1" d="M109.098 8.11853C109.098 8.11853 136.408 39.2196 116.35 88.5958C110.158 103.837 88.0356 110.41 78.1612 106.203C68.2847 101.997 57.7146 96.8132 47.2226 100.825C36.7305 104.837 15.4407 95.0761 17.7533 81.8055C17.7533 81.8055 8.33843 100.939 22.5345 112.974C36.7305 125.009 105.55 130.077 120.361 119.056C135.175 108.035 148.136 14.2194 148.136 14.2194L109.098 8.11853Z" fill="black"/>
</g>
</svg>
