<svg width="150" height="142" viewBox="0 0 150 142" fill="none" xmlns="http://www.w3.org/2000/svg">
<path d="M109.067 103.997H13.8701C13.8701 103.997 10.84 76.2184 16.0889 67.3535C21.3378 58.487 30.2642 73.3833 31.2453 80.2156C31.2453 80.2156 27.4489 49.8576 36.9933 39.8757C46.5377 29.8937 54.9372 62.5725 54.9372 71.6373C54.9372 71.6373 59.293 53.548 71.7361 56.0439C84.1808 58.5397 84.8019 77.4377 84.8019 77.4377C84.8019 77.4377 96.9345 66.9616 105.334 74.7544C113.733 82.5457 113.423 90.1759 113.423 90.1759C113.423 90.1759 135.823 86.958 138 104H109.067V103.997Z" fill="#F28FA4"/>
</svg>
