<svg width="150" height="142" viewBox="0 0 150 142" fill="none" xmlns="http://www.w3.org/2000/svg">
<mask id="mask0_4_1394" style="mask-type:luminance" maskUnits="userSpaceOnUse" x="71" y="27" width="70" height="71">
<path d="M95.8127 97.5875C95.8127 97.5875 120.605 99.1002 134.495 83.0395C148.387 66.9787 135.127 34.6918 118.692 28.4105C102.258 22.1293 75.5133 38.1545 71.3297 50.3074L78.0719 57.2229C78.0719 57.2229 84.7274 43.9513 101.139 38.9581C117.552 33.965 130.511 48.3633 130.483 61.5365C130.455 74.7097 110.617 88.33 95.5389 86.5888L95.8127 97.5875Z" fill="white"/>
</mask>
<g mask="url(#mask0_4_1394)">
<path d="M95.8127 97.5875C95.8127 97.5875 120.605 99.1002 134.495 83.0395C148.387 66.9787 135.127 34.6918 118.692 28.4105C102.258 22.1293 75.5133 38.1545 71.3297 50.3074L78.0719 57.2229C78.0719 57.2229 84.7274 43.9513 101.139 38.9581C117.552 33.965 130.511 48.3633 130.483 61.5365C130.455 74.7097 110.617 88.33 95.5389 86.5888L95.8127 97.5875Z" fill="#8CCEDC"/>
</g>
<mask id="mask1_4_1394" style="mask-type:luminance" maskUnits="userSpaceOnUse" x="71" y="27" width="70" height="71">
<path d="M95.8127 97.5875C95.8127 97.5875 120.605 99.1002 134.495 83.0395C148.387 66.9787 135.127 34.6918 118.692 28.4105C102.258 22.1293 75.5133 38.1545 71.3297 50.3074L78.0719 57.2229C78.0719 57.2229 84.7274 43.9513 101.139 38.9581C117.552 33.965 130.511 48.3633 130.483 61.5365C130.455 74.7097 110.617 88.33 95.5389 86.5888L95.8127 97.5875Z" fill="white"/>
</mask>
<g mask="url(#mask1_4_1394)">
<path opacity="0.1" d="M92.1433 93.264C92.1433 93.264 122.969 91.4913 131.923 74.8732C140.877 58.257 131.04 38.9345 117.064 34.9085C103.087 30.8825 78.0996 41.3572 74.241 56.8802L92.1433 93.264Z" fill="black"/>
</g>
<mask id="mask2_4_1394" style="mask-type:luminance" maskUnits="userSpaceOnUse" x="53" y="34" width="47" height="82">
<path d="M53.65 42.4661L70.6896 79.3227L85.7005 111.793C85.7005 111.793 95.0526 123.479 98.8639 107.899C103.067 90.7172 92.9036 69.0547 92.9036 69.0547C92.9036 69.0547 81.8754 45.1311 66.0649 37.2012C51.7237 30.0079 53.65 42.4661 53.65 42.4661Z" fill="white"/>
</mask>
<g mask="url(#mask2_4_1394)">
<path d="M53.65 42.4661L70.6896 79.3227L85.7005 111.793C85.7005 111.793 95.0526 123.479 98.8639 107.899C103.067 90.7172 92.9036 69.0547 92.9036 69.0547C92.9036 69.0547 81.8754 45.1311 66.0649 37.2012C51.7237 30.0079 53.65 42.4661 53.65 42.4661Z" fill="#8CCEDC"/>
</g>
<mask id="mask3_4_1394" style="mask-type:luminance" maskUnits="userSpaceOnUse" x="53" y="34" width="47" height="82">
<path d="M53.65 42.4661L70.6896 79.3227L85.7005 111.793C85.7005 111.793 95.0526 123.479 98.8639 107.899C103.067 90.7172 92.9036 69.0547 92.9036 69.0547C92.9036 69.0547 81.8754 45.1311 66.0649 37.2012C51.7237 30.0079 53.65 42.4661 53.65 42.4661Z" fill="white"/>
</mask>
<g mask="url(#mask3_4_1394)">
<path d="M80.0438 104.643C80.0438 104.643 87.6606 112.514 92.4291 110.31C97.1977 108.106 97.0539 87.4574 88.3716 70.6344C79.6893 53.8114 68.6827 43.1693 63.1814 42.0958C57.6821 41.0224 53.2129 45.4384 53.1341 48.0068L47.9814 41.1661C47.9814 41.1661 51.6293 27.5439 59.7128 29.7755C67.7964 32.0052 83.3332 37.8433 97.4794 72.352C111.626 106.861 104.054 119.041 92.2243 119.266C80.3944 119.49 74.8025 107.79 74.8025 107.79L80.0438 104.643Z" fill="#EB5F7C"/>
</g>
<mask id="mask4_4_1394" style="mask-type:luminance" maskUnits="userSpaceOnUse" x="53" y="34" width="47" height="82">
<path d="M53.65 42.4661L70.6896 79.3227L85.7005 111.793C85.7005 111.793 95.0526 123.479 98.8639 107.899C103.067 90.7172 92.9036 69.0547 92.9036 69.0547C92.9036 69.0547 81.8754 45.1311 66.0649 37.2012C51.7237 30.0079 53.65 42.4661 53.65 42.4661Z" fill="white"/>
</mask>
<g mask="url(#mask4_4_1394)">
<path opacity="0.1" d="M80.7942 102.941C80.7942 102.941 87.7766 103.963 88.1115 100.191C88.4463 96.4195 89.0766 93.6875 90.1166 90.9457C91.1586 88.204 88.9565 86.9611 88.6906 83.6481C88.4247 80.3351 89.4095 79.3365 87.6132 75.6473C85.8168 71.9581 83.7821 71.2707 83.2976 67.8769C82.815 64.4832 82.9057 62.7242 80.7489 62.3638C78.5941 62.0033 77.0045 62.1058 75.0999 58.4658C73.1952 54.8258 72.3108 53.6972 70.5007 54.0813C68.6905 54.4674 66.3447 53.1103 64.44 50.5536C62.5353 47.999 61.4657 51.7472 60.4927 52.3795C59.5177 53.0098 56.6223 51.6369 56.6223 51.6369L80.7942 102.941Z" fill="black"/>
</g>
<mask id="mask5_4_1394" style="mask-type:luminance" maskUnits="userSpaceOnUse" x="10" y="55" width="78" height="59">
<path d="M59.4448 65.4443C60.9181 71.4361 55.1824 77.4751 48.6628 79.0075C42.1412 80.5379 -0.848937 80.6502 12.5842 106.016C24.2408 128.023 49.9411 97.8021 55.3321 93.8273C60.7231 89.8525 68.5427 87.9301 72.1531 92.9351C75.7635 97.938 81.123 99.9077 81.123 99.9077C92.8091 89.5 84.3612 72.8306 84.3612 72.8306C84.3612 72.8306 76.0058 53.1516 60.5064 55.3123C60.5084 55.3123 57.9715 59.4506 59.4448 65.4443Z" fill="white"/>
</mask>
<g mask="url(#mask5_4_1394)">
<path d="M59.4448 65.4443C60.9181 71.4361 55.1824 77.4751 48.6628 79.0075C42.1412 80.5379 -0.848937 80.6502 12.5842 106.016C24.2408 128.023 49.9411 97.8021 55.3321 93.8273C60.7231 89.8525 68.5427 87.9301 72.1531 92.9351C75.7635 97.938 81.123 99.9077 81.123 99.9077C92.8091 89.5 84.3612 72.8306 84.3612 72.8306C84.3612 72.8306 76.0058 53.1516 60.5064 55.3123C60.5064 55.3123 57.9715 59.4506 59.4448 65.4443Z" fill="#EAB938"/>
</g>
<mask id="mask6_4_1394" style="mask-type:luminance" maskUnits="userSpaceOnUse" x="10" y="55" width="78" height="59">
<path d="M59.4448 65.4443C60.9181 71.4361 55.1824 77.4751 48.6628 79.0075C42.1412 80.5379 -0.848937 80.6502 12.5842 106.016C24.2408 128.023 49.9411 97.8021 55.3321 93.8273C60.7231 89.8525 68.5427 87.9301 72.1531 92.9351C75.7635 97.938 81.123 99.9077 81.123 99.9077C92.8091 89.5 84.3612 72.8306 84.3612 72.8306C84.3612 72.8306 76.0058 53.1516 60.5064 55.3123C60.5084 55.3123 57.9715 59.4506 59.4448 65.4443Z" fill="white"/>
</mask>
<g mask="url(#mask6_4_1394)">
<path opacity="0.1" d="M11.5481 108.641C11.5481 108.641 10.6106 93.7033 19.354 88.7574C28.0974 83.8116 42.2121 88.135 53.4432 81.1348C64.6742 74.1345 66.0432 65.3636 66.0432 65.3636C66.0432 65.3636 83.6521 65.9033 86.6223 97.3629C86.6223 97.3629 97.8377 55.9091 54.9815 50.0435C54.9815 50.0435 53.6007 59.1808 54.751 64.7983C55.9013 70.4158 45.852 77.2309 34.6505 76.0806C23.4489 74.9303 -6.90179 82.8149 11.5481 108.641Z" fill="black"/>
</g>
<path d="M17.6643 109.244C24.8792 116.622 36.8765 107.519 42.3758 102.072C43.0455 101.409 42.1001 100.272 41.4225 100.944C36.717 105.604 25.155 114.799 18.7929 108.291C18.1331 107.615 16.9985 108.563 17.6643 109.244Z" fill="white"/>
<path d="M44.5048 99.8625C45.2986 98.9584 46.1436 98.1075 47.0338 97.296C47.7331 96.6578 46.7837 95.5233 46.0805 96.1674C45.0957 97.0655 44.1719 98.0169 43.2934 99.0175C42.667 99.7305 43.8824 100.572 44.5048 99.8625Z" fill="white"/>
<path d="M120.645 91.1604C128.119 87.3294 136.394 79.9254 138.508 71.4834C138.736 70.5695 137.351 70.0514 137.121 70.9732C135.114 78.9898 127.105 86.189 120.024 89.8191C119.181 90.2524 119.798 91.5957 120.645 91.1604Z" fill="white"/>
<path d="M86.7958 110.824C89.0038 111.618 91.5782 111.716 93.536 110.227C95.5628 108.687 96.1853 106.085 96.4807 103.688C96.5969 102.742 95.1256 102.604 95.0094 103.546C94.7888 105.322 94.4244 107.404 93.0495 108.702C91.4699 110.193 89.2343 110.13 87.3059 109.435C86.4097 109.114 85.8996 110.501 86.7958 110.824Z" fill="white"/>
<path d="M96.6972 101.164C96.8844 99.766 96.8902 98.3695 96.7287 96.969C96.6204 96.0216 95.1629 96.2698 95.2712 97.2113C95.4189 98.4896 95.3992 99.7502 95.2279 101.025C95.0998 101.968 96.5712 102.106 96.6972 101.164Z" fill="white"/>
</svg>
