<svg width="150" height="142" viewBox="0 0 150 142" fill="none" xmlns="http://www.w3.org/2000/svg">
<path fill-rule="evenodd" clip-rule="evenodd" d="M76.7483 117.991C56.3547 121 41.3517 100.665 37.2096 83.7217C31.9374 60.3723 35.7031 30.2441 56.4133 15.5588C63.9447 10.6641 71.8549 9.5339 80.5166 9.90897C87.6692 9.90897 102.736 12.1682 104.242 2C104.995 5.76696 105.371 11.0392 102.736 14.0523C105.371 14.4298 107.63 12.5445 109.136 10.6641C110.268 15.5588 107.254 18.1955 106.877 22.7139C106.501 26.4796 109.512 31.7494 110.642 35.5151C112.901 45.3082 113.275 54.7237 114.03 64.8906C114.408 75.4364 113.276 85.227 110.642 95.7677C108.007 107.067 104.241 111.584 93.319 115.353C88.048 117.238 81.6455 117.616 76.3733 117.991" fill="#F4C551"/>
<path d="M69.3329 131.453C69.3279 126.594 69.2756 121.726 68.5367 116.913C68.2949 115.328 65.8936 116.004 66.1341 117.574C66.8432 122.207 66.8419 126.924 66.8407 131.603C66.8058 131.749 66.8045 131.906 66.8407 132.069C66.8407 132.146 66.8407 132.222 66.8407 132.3C66.8407 132.357 66.8656 132.397 66.8706 132.449C64.8619 134.121 62.847 135.785 60.68 137.25C59.3579 138.145 60.6015 140.304 61.9386 139.402C63.8439 138.114 65.6432 136.682 67.4164 135.222C67.5822 136.623 67.5934 138.039 67.5946 139.453C67.5959 141.061 70.0881 141.061 70.0868 139.453C70.0856 138.204 70.0557 136.962 69.951 135.726C71.1859 136.856 72.4543 137.959 73.4126 139.33C74.326 140.636 76.488 139.392 75.5647 138.071C73.8226 135.576 71.0388 133.938 69.3329 131.453Z" fill="#E66541"/>
<path d="M96.2635 138.069C94.676 135.797 92.0978 134.361 90.6162 132.047C90.4567 131.797 90.2524 131.638 90.0318 131.551C90.0343 126.114 90.0517 120.627 89.2318 115.244C88.9913 113.659 86.5901 114.335 86.8293 115.906C87.6493 121.304 87.5371 126.853 87.5383 132.298C87.5383 132.356 87.5633 132.396 87.5683 132.448C85.5596 134.12 83.5446 135.784 81.3751 137.249C80.053 138.144 81.2979 140.303 82.6337 139.401C84.539 138.113 86.3409 136.681 88.1141 135.22C88.2798 136.624 88.291 138.038 88.2923 139.452C88.2923 141.06 90.7845 141.06 90.7845 139.452C90.7832 138.226 90.7546 137.007 90.6549 135.792C91.8648 136.916 93.1608 137.967 94.1103 139.328C95.025 140.635 97.1869 139.391 96.2635 138.069Z" fill="#E66541"/>
<path fill-rule="evenodd" clip-rule="evenodd" d="M65.8276 117.614C54.5317 106.691 45.8676 81.4625 62.4382 71.2918C85.4101 56.604 103.485 87.8599 96.7084 108.196C95.9557 110.834 92.3632 115.26 90.9813 116.072C90.9813 116.072 85.3951 117.161 78.5615 117.832C70.255 118.647 65.8276 117.614 65.8276 117.614Z" fill="#EFB83C"/>
<path fill-rule="evenodd" clip-rule="evenodd" d="M41.9124 52.006C37.3941 56.5268 34.0022 62.1729 28.7312 66.3174C24.5879 69.7081 13.6671 73.47 12.1618 79.4961C9.90138 91.5484 32.1219 93.8064 29.1063 77.9896C34.381 87.0276 44.5492 79.875 40.781 71.2108C51.3243 75.7317 47.1809 55.0203 41.9124 52.006Z" fill="#EFB83C"/>
<path fill-rule="evenodd" clip-rule="evenodd" d="M108.086 52.006C112.61 56.5268 115.997 62.1729 121.268 66.3174C125.411 69.7081 136.332 73.47 137.838 79.4961C140.098 91.5484 117.878 93.8064 120.893 77.9896C115.619 87.0276 105.451 79.875 109.217 71.2108C98.6722 75.7317 102.817 55.0203 108.086 52.006Z" fill="#EFB83C"/>
<path fill-rule="evenodd" clip-rule="evenodd" d="M69.2194 49.0727C75.6867 48.6989 80.5154 48.6989 85.7864 48.6989C82.6773 55.4751 80.5166 58.1106 78.2549 62.2564C74.8668 58.1106 72.2288 52.8409 69.2194 49.0727Z" fill="#FC5C30"/>
<path fill-rule="evenodd" clip-rule="evenodd" d="M61.3105 47.14C61.3105 48.7836 59.9722 50.1194 58.3273 50.1194C56.6825 50.1194 55.3479 48.7848 55.3479 47.14V43.3307C55.3479 41.6846 56.6812 40.3488 58.3273 40.3488C59.9709 40.3488 61.3105 41.6833 61.3105 43.3307V47.14Z" fill="#1A1A1A"/>
<path fill-rule="evenodd" clip-rule="evenodd" d="M96.7881 47.14C96.7881 48.7836 95.4523 50.1194 93.8074 50.1194C92.1626 50.1194 90.8268 48.7848 90.8268 47.14V43.3307C90.8268 41.6846 92.1613 40.3488 93.8074 40.3488C95.451 40.3488 96.7881 41.6833 96.7881 43.3307V47.14Z" fill="#1A1A1A"/>
</svg>
