<svg width="150" height="142" viewBox="0 0 150 142" fill="none" xmlns="http://www.w3.org/2000/svg">
<path fill-rule="evenodd" clip-rule="evenodd" d="M61.6423 66.3145C65.3161 70.9769 68.8433 73.3691 71.9908 73.498C84.9359 74.0305 108.125 74.4981 118.455 81.8737C118.455 81.8737 125.583 81.6807 129.627 78.2131C133.674 74.7454 131.94 78.0201 131.94 78.5982C131.94 79.1762 128.28 86.022 122.307 87.4151C123.341 96.267 120.51 100.008 119.996 109.228C119.996 114.024 121.446 135.529 114.216 135.159C105.953 134.791 113.819 113.467 101.425 110.147C85.9306 105.722 75.0891 105.786 71.9899 115.007C70.4399 119.802 69.9083 134.573 69.9083 134.573C61.1274 136.048 58.6694 132.862 58.6694 128.437C58.1528 123.642 57.2457 105.537 48.9832 117.708C46.4016 121.766 47.5113 129.82 47.5113 129.82C47.5113 133.707 43.7971 136.197 37.7119 133.195C35.7934 132.249 37.1935 122.498 37.1935 120.287C37.1935 115.123 38.3408 105.554 38.6031 100.737C39.133 91.0072 38.49 78.3552 41.0725 70.6102" fill="#C18453"/>
<path fill-rule="evenodd" clip-rule="evenodd" d="M81.9946 78.8113C80.7358 77.0156 76.2348 76.5928 76.2822 79.8806C76.3216 82.5535 82.4745 81.0061 81.9946 78.8113Z" fill="#B57448"/>
<path fill-rule="evenodd" clip-rule="evenodd" d="M95.4756 81.5341C94.2151 79.7367 89.7132 79.3157 89.7632 82.6043C89.8018 85.2763 95.9546 83.7289 95.4756 81.5341Z" fill="#B57448"/>
<path fill-rule="evenodd" clip-rule="evenodd" d="M85.9087 83.2457C84.9192 81.8342 81.3822 81.5035 81.4208 84.0869C81.4507 86.187 86.285 84.9711 85.9087 83.2457Z" fill="#B57448"/>
<path fill-rule="evenodd" clip-rule="evenodd" d="M103.358 80.1833C102.366 78.7718 98.831 78.4402 98.8696 81.0236C98.9012 83.1237 103.734 81.9079 103.358 80.1833Z" fill="#B57448"/>
<path fill-rule="evenodd" clip-rule="evenodd" d="M100.416 84.8501C99.6214 83.7167 96.7845 83.4518 96.8161 85.5255C96.8415 87.2089 100.719 86.2334 100.416 84.8501Z" fill="#B57448"/>
<path fill-rule="evenodd" clip-rule="evenodd" d="M88.8843 78.5894C88.0702 77.4288 85.1622 77.1569 85.1947 79.2806C85.2201 81.0087 89.1922 80.0078 88.8843 78.5894Z" fill="#B57448"/>
<path d="M39.5286 6.95508C39.147 9.65076 39.047 12.3464 38.8549 15.0579C38.676 17.5878 37.7671 19.2615 36.0022 20.5668C35.246 17.2132 34.5416 13.8465 33.896 10.4701C33.5784 8.80425 31.0416 9.51217 31.3583 11.1701C32.0785 14.9386 32.8785 18.6931 33.7294 22.4353C33.6934 22.7204 33.7618 23.0186 33.9153 23.2774C34.1487 24.3134 34.3671 25.4319 34.6022 26.5863C29.2319 24.8441 28.6652 18.7633 27.2467 13.6193C26.7958 11.9859 24.2572 12.6798 24.709 14.3193C26.5011 20.8195 27.4994 28.1811 35.2329 29.4513C35.882 32.104 36.761 34.7067 38.2654 36.6514C39.3032 37.9927 41.1506 36.1155 40.126 34.7909C37.9786 32.0136 37.29 27.124 36.5794 23.3362C42.3366 19.83 41.1918 13.8272 42.0646 7.65422C42.3006 5.99541 39.7646 5.28048 39.5286 6.95508Z" fill="#895B3D"/>
<path d="M70.7224 13.636C69.3486 18.7975 68.8337 24.8985 63.488 26.7231C63.7081 25.5573 63.9125 24.4345 64.1371 23.4125C64.2924 23.1494 64.36 22.8476 64.3178 22.5607C65.1433 18.8185 65.8986 15.0579 66.5846 11.2877C66.8863 9.62884 64.3503 8.92005 64.0468 10.5876C63.4283 13.9868 62.7415 17.3746 62.0186 20.7537C60.4186 19.6186 59.4817 18.1615 59.1879 15.9097C58.8089 13.0158 58.8194 10.0929 58.3835 7.1972C58.1317 5.52348 55.5957 6.23753 55.8457 7.89722C56.7703 14.0368 55.6711 20.0879 61.4669 23.509C60.7537 27.424 60.0546 32.3224 57.8238 35.2725C56.7992 36.6269 59.0861 37.9357 60.0958 36.6006C61.5037 34.74 62.309 32.1926 62.8985 29.6004C70.5838 28.1942 71.5206 20.8633 73.2584 14.3369C73.6961 12.6938 71.1583 11.9973 70.7224 13.636Z" fill="#895B3D"/>
<path fill-rule="evenodd" clip-rule="evenodd" d="M35.8382 35.2549C32.4521 29.7372 23.9379 27.8758 18 28.953C19.0483 36.5979 21.2045 40.9761 27.1704 45.685L27.5599 45.9552C27.3476 54.1703 26.7888 59.238 32.8434 66.3154C36.3777 70.7839 37.9294 75.6138 48.1025 76.384C57.4633 77.0937 62.3011 66.5619 65.9301 62.1556C70.6399 56.1914 70.189 51.8431 70.9706 44.8885L71.2417 44.4981C75.5295 43.7201 83.4762 36.8269 82.0691 30.9496L82.0086 30.6197C75.4751 28.3995 66.3003 30.4057 62.1309 35.5909" fill="#CE9561"/>
<path fill-rule="evenodd" clip-rule="evenodd" d="M44.555 58.8801C43.5971 53.6045 42.7287 46.9473 40.183 42.3007C38.9839 39.4515 37.0356 38.1015 35.8382 35.2549C35.8382 35.2549 48.0437 28.6609 62.1309 35.5918C62.1309 35.5918 51.5745 52.4975 51.3921 59.0029C49.5017 57.9827 45.9735 57.9862 44.555 58.8801Z" fill="#C18453"/>
<path fill-rule="evenodd" clip-rule="evenodd" d="M38.5619 53.4036C38.6496 54.287 38.0048 55.0756 37.1215 55.1642C36.2381 55.2537 35.4486 54.6089 35.36 53.7238L35.1539 51.6799C35.0662 50.7966 35.7118 50.0079 36.5952 49.9193C37.4785 49.8307 38.2672 50.4746 38.3566 51.3589L38.5619 53.4036Z" fill="#1A1A1A"/>
<path fill-rule="evenodd" clip-rule="evenodd" d="M61.8765 54.6282C61.766 55.5081 60.9625 56.1335 60.0809 56.023C59.1993 55.9134 58.5729 55.1081 58.6843 54.2265L58.9387 52.1878C59.051 51.3071 59.8554 50.6817 60.737 50.7931C61.6186 50.9036 62.2432 51.7062 62.1309 52.5887L61.8765 54.6282Z" fill="#1A1A1A"/>
<path d="M54.6992 66.4979C54.5649 68.483 52.8816 69.369 51.0368 69.0769C49.0078 68.7567 47.7279 67.0681 47.8253 65.0575C47.8279 65.0119 47.8148 64.9768 47.8069 64.9382C48.142 63.7399 48.2016 62.4346 47.985 61.1434C47.892 60.5863 47.0463 60.8232 47.1384 61.3767C47.5797 64.0057 46.8077 66.661 44.4217 68.0672C42.8576 68.9892 40.5962 68.89 40.2997 66.7663C40.2216 66.2075 39.376 66.4461 39.4532 66.9996C39.7997 69.4787 42.4278 69.9927 44.4279 69.0444C45.6384 68.4707 46.5191 67.6023 47.1226 66.5733C47.6042 68.3576 49.0824 69.6515 51.0552 69.9629C53.4149 70.3357 55.4132 68.8988 55.5755 66.4979C55.615 65.933 54.7378 65.9373 54.6992 66.4979Z" fill="#895B3D"/>
<path fill-rule="evenodd" clip-rule="evenodd" d="M44.5551 58.8801C44.5551 58.8801 44.8165 58.231 48.0438 58.231C50.5009 58.231 51.3912 59.002 51.3912 59.002L47.7631 63.4741L44.5551 58.8801Z" fill="#895B3D"/>
</svg>
