<svg width="150" height="142" viewBox="0 0 150 142" fill="none" xmlns="http://www.w3.org/2000/svg">
<path fill-rule="evenodd" clip-rule="evenodd" d="M69.652 16.8401C69.358 11.5621 78.741 5.69606 82.262 8.92206C85.487 12.1481 85.781 27.3971 81.383 27.9831" fill="#FC592E"/>
<path fill-rule="evenodd" clip-rule="evenodd" d="M71.7041 18.306C73.1731 16.547 76.1031 10.975 78.7411 11.855C82.8491 13.027 80.2091 22.999 78.1551 24.464" fill="#E0B3BB"/>
<path fill-rule="evenodd" clip-rule="evenodd" d="M33.129 16.8401C33.423 11.5621 24.038 5.69606 20.518 8.92206C17.293 12.1481 17.479 28.1321 21.877 28.7191" fill="#FC592E"/>
<path fill-rule="evenodd" clip-rule="evenodd" d="M31.0751 18.306C29.6101 16.547 26.6771 10.975 24.0381 11.855C19.9311 13.027 22.5721 22.999 24.6241 24.464" fill="#E0B3BB"/>
<path fill-rule="evenodd" clip-rule="evenodd" d="M46.974 10.68C27.422 13.417 19.211 29.839 11 45.48C32.69 65.109 69.644 67.847 92.331 46.262C85.7 28.356 66.522 7.94201 46.974 10.68Z" fill="#FC592E"/>
<path fill-rule="evenodd" clip-rule="evenodd" d="M55.76 47.514C55.454 38.006 55.367 22.386 70.62 17.797C70.62 17.797 55.368 1.522 33.136 15.773C33.136 15.773 48.526 27.983 47.548 47.514C50.285 47.514 53.415 47.514 55.76 47.514Z" fill="#F7F0E2"/>
<path fill-rule="evenodd" clip-rule="evenodd" d="M95.027 95.807C94.674 88.183 91.498 79.678 86.557 73.225C82.321 67.654 72.152 63.162 65.447 60.229C71.446 65.801 76.674 81.437 76.321 89.649C75.262 102.553 73.145 113.403 68.557 125.72C68.179 126.662 67.889 128.052 67.45 129.45V129.451C70.626 130.331 77.026 130.412 80.91 130.412C83.733 130.412 89.381 130.999 91.498 129.532C93.97 127.773 93.97 121.615 94.322 119.562C95.027 111.643 95.381 103.432 95.027 95.807Z" fill="#E84828"/>
<path fill-rule="evenodd" clip-rule="evenodd" d="M76.3211 89.648C76.6741 81.437 71.4461 65.8 65.4471 60.228L35.8471 53.932C27.0231 66.835 22.6751 83.783 23.7331 99.032C24.4391 106.657 29.0261 112.523 31.1441 119.561C32.5571 125.133 30.0851 135.983 40.6741 134.224C49.1441 132.758 44.9091 121.321 45.2631 115.455C45.6151 111.056 45.6151 106.657 46.3211 102.552C47.0261 97.567 49.1441 96.099 52.3221 101.378C55.8501 107.83 55.4971 118.094 56.5561 125.133C56.9091 128.065 57.2621 134.517 62.2021 134.517C65.3801 134.517 66.6581 131.97 67.4491 129.449C67.8881 128.051 68.1781 126.661 68.5561 125.719C73.1451 113.402 75.2631 102.552 76.3211 89.648ZM54.5571 90.916C55.3401 82.705 46.7691 84.27 45.9881 90.916C37.3871 80.359 36.5751 72.489 40.2001 59.239L59.6701 61.2C65.5341 67.457 60.8151 85.052 54.5571 90.916Z" fill="#FC592E"/>
<path fill-rule="evenodd" clip-rule="evenodd" d="M40.2 59.2391C36.575 72.4891 37.386 80.3591 45.988 90.9161C46.77 84.2701 55.34 82.7051 54.557 90.9161C60.815 85.0511 65.534 67.4571 59.67 61.2001L40.2 59.2391Z" fill="#F7F0E2"/>
<path fill-rule="evenodd" clip-rule="evenodd" d="M124.016 50.645C124.353 50.268 124.835 49.745 125.472 49.105C124.962 49.608 124.479 50.122 124.016 50.645Z" fill="#FC592E"/>
<path fill-rule="evenodd" clip-rule="evenodd" d="M123.498 51.2401C117.423 58.4661 115.508 67.5281 113.735 78.2121C112.322 86.4231 109.85 96.5991 95.0271 95.8081V109.298C95.7341 109.591 96.4391 109.884 97.1461 109.884C117.263 115.164 136.675 103.726 138.44 86.424C139.034 79.274 139.114 71.9171 138.08 64.7001C125.848 62.9551 125.061 57.8831 123.498 51.2401Z" fill="#FC592E"/>
<path fill-rule="evenodd" clip-rule="evenodd" d="M138.08 64.699C138.085 64.699 138.089 64.7 138.093 64.701C138.093 64.701 137.35 58.261 136.798 52.541C136.245 46.821 139.499 40.381 139.499 40.381C133.601 41.658 128.24 46.323 125.473 49.106C124.836 49.746 124.354 50.269 124.017 50.646C123.69 51.009 123.498 51.239 123.498 51.239C125.061 57.882 125.848 62.955 138.08 64.699Z" fill="#F9D7AA"/>
<path d="M59.17 51.816C59.03 56.104 54.087 56.589 51.853 53.47C51.826 53.431 51.791 53.409 51.759 53.382C51.747 53.369 51.734 53.358 51.721 53.346C51.706 53.336 51.693 53.324 51.678 53.316C51.502 53.185 51.261 53.157 51.068 53.369C49.484 55.111 44.317 55.572 44.53 52.206C44.571 51.562 43.57 51.566 43.53 52.206C43.273 56.258 48.925 56.45 51.378 54.443C54.332 57.816 60.004 56.898 60.17 51.816C60.191 51.171 59.191 51.173 59.17 51.816Z" fill="#1A1A1A"/>
<path fill-rule="evenodd" clip-rule="evenodd" d="M69.202 41.928C69.302 42.919 68.579 43.805 67.585 43.905C66.594 44.005 65.707 43.281 65.607 42.289L65.377 39.993C65.277 39 66.002 38.116 66.995 38.016C67.987 37.916 68.871 38.639 68.97 39.632L69.202 41.928Z" fill="#1A1A1A"/>
<path fill-rule="evenodd" clip-rule="evenodd" d="M39.681 41.928C39.78 42.919 39.0571 43.805 38.0641 43.905C37.0721 44.005 36.1851 43.281 36.0871 42.289L35.8561 39.993C35.7551 39 36.4811 38.116 37.4721 38.016C38.4651 37.916 39.3501 38.639 39.4491 39.632L39.681 41.928Z" fill="#1A1A1A"/>
<path fill-rule="evenodd" clip-rule="evenodd" d="M47.548 47.514H55.76C55.76 47.514 55.217 49.207 54.098 50.972C52.888 52.879 51.386 53.418 51.386 53.418C51.386 53.418 49.553 52.512 48.71 50.79C47.919 49.173 47.548 47.514 47.548 47.514Z" fill="#1A1A1A"/>
</svg>
