<svg width="150" height="142" viewBox="0 0 150 142" fill="none" xmlns="http://www.w3.org/2000/svg">
<path fill-rule="evenodd" clip-rule="evenodd" d="M74.064 60.0231C79.881 63.0861 85.087 65.2311 88.762 71.0471C93.051 77.7851 95.806 86.6661 96.114 94.6291C96.419 102.59 96.114 111.166 95.5 119.435C95.194 121.577 95.194 128.009 93.051 129.848C91.213 131.377 86.313 130.766 83.864 130.766C80.494 130.766 74.497 132.04 71.74 131.122" fill="#827F7F"/>
<path fill-rule="evenodd" clip-rule="evenodd" d="M42.521 56.9622C34.865 70.4362 33.333 82.0722 34.252 97.9962C34.864 105.959 38.846 112.084 40.683 119.434C41.909 125.253 39.764 136.583 48.952 134.745C56.302 133.214 52.627 121.272 52.934 115.144C53.241 110.551 53.241 105.958 53.852 101.671C54.465 96.4652 56.302 94.9332 59.058 100.446C62.121 107.182 61.814 117.902 62.733 125.252C63.039 128.314 63.344 135.051 67.633 135.051C71.92 135.051 72.225 128.619 73.146 125.864C77.126 113.001 78.963 101.671 79.881 88.1962C80.189 79.6222 78.351 64.6162 73.146 58.7982" fill="#919191"/>
<path fill-rule="evenodd" clip-rule="evenodd" d="M96.114 94.6291C108.976 95.4551 111.118 84.8291 112.344 76.2551C114.793 58.4921 117.55 45.0181 134.698 36.7501C130.718 42.8741 131.942 51.4501 132.861 57.8791C134.393 66.7611 134.393 75.9481 133.779 84.8291C132.248 102.896 115.404 114.841 97.949 109.328C97.337 109.328 96.724 109.022 96.113 108.715" fill="#8C8B8B"/>
<path d="M134.082 69.9761C127.995 69.1141 119.353 65.2551 115.181 60.8111L116.199 57.4461C120.128 61.6331 128.171 65.8201 133.903 66.6321L134.082 69.9761Z" fill="#1A1A1A"/>
<path d="M133.137 88.9921C128.198 87.4441 116.24 81.3631 112.217 76.2551L112.821 72.8991C116.507 77.5811 128.879 84.1521 133.699 85.6621L133.137 88.9921Z" fill="#1A1A1A"/>
<path d="M123.372 104.776C114.232 101.998 111.006 97.8631 107.061 94.3211C106.426 93.7521 105.855 93.0711 105.228 92.5291L107.395 90.5271C108.034 91.0761 108.665 91.6451 109.309 92.2241C113.111 95.6391 117.422 99.5091 126.172 102.168L123.372 104.776Z" fill="#1A1A1A"/>
<path fill-rule="evenodd" clip-rule="evenodd" d="M15 47.4531C41.757 63.1201 74.89 69.9061 100.18 45.0721C92.721 28.5531 71.741 6.47712 51.423 9.96812C31.104 13.4561 23.064 30.8621 15 47.4531Z" fill="#A0A0A0"/>
<path fill-rule="evenodd" clip-rule="evenodd" d="M75.901 17.0021C75.594 11.4891 85.394 5.36411 89.069 8.73311C92.439 12.1011 92.745 28.0261 88.152 28.6381" fill="#A0A0A0"/>
<path fill-rule="evenodd" clip-rule="evenodd" d="M78.044 18.5331C79.576 16.6961 82.639 10.8771 85.394 11.7961C89.681 13.0211 86.926 23.4331 84.782 24.9651" fill="#E0B3BB"/>
<path fill-rule="evenodd" clip-rule="evenodd" d="M37.761 16.2311C38.068 10.7181 28.268 4.59413 24.593 7.96313C21.224 11.3311 20.918 27.2551 25.511 27.8681" fill="#A0A0A0"/>
<path fill-rule="evenodd" clip-rule="evenodd" d="M35.617 17.7622C34.087 15.9252 31.024 10.1052 28.268 11.0252C23.98 12.2502 26.736 22.6622 28.88 24.1932" fill="#E0B3BB"/>
<path fill-rule="evenodd" clip-rule="evenodd" d="M44.381 55.5251C47.016 54.8661 47.603 54.0541 48.521 52.8281C50.664 50.3781 50.664 45.4781 50.205 42.5681C49.134 35.3721 39.027 26.3381 31.983 31.8501C29.38 33.9941 26.317 38.5871 25.551 41.9561C24.633 45.7841 24.939 48.0811 27.696 50.9901C30.911 53.9001 39.844 58.2681 45.637 55.1441" fill="#1A1A1A"/>
<path fill-rule="evenodd" clip-rule="evenodd" d="M67.206 56.0802C64.57 55.4222 63.982 54.6092 63.064 53.3832C60.921 50.9332 60.921 46.0332 61.379 43.1242C62.451 35.9272 72.557 26.8942 79.601 32.4052C82.204 34.5492 85.266 39.1432 86.033 42.5112C86.95 46.3402 86.645 48.6352 83.889 51.5462C80.673 54.4552 71.74 58.8232 65.947 55.7002" fill="#1A1A1A"/>
<path fill-rule="evenodd" clip-rule="evenodd" d="M41.912 42.5921C42.019 43.6631 41.238 44.6211 40.166 44.7291C39.092 44.8361 38.135 44.0551 38.028 42.9821L37.777 40.4991C37.67 39.4281 38.453 38.4711 39.525 38.3631C40.598 38.2551 41.556 39.0361 41.663 40.1111L41.912 42.5921Z" fill="white"/>
<path fill-rule="evenodd" clip-rule="evenodd" d="M40.907 42.0841C40.962 42.6341 40.56 43.1261 40.009 43.1811C39.458 43.2361 38.965 42.8351 38.911 42.2841L38.783 41.0091C38.728 40.4581 39.13 39.9661 39.68 39.9111C40.231 39.8541 40.723 40.2571 40.779 40.8071L40.907 42.0841Z" fill="#1A1A1A"/>
<path fill-rule="evenodd" clip-rule="evenodd" d="M75.884 42.5921C75.992 43.6631 75.209 44.6211 74.138 44.7291C73.066 44.8361 72.108 44.0551 71.999 42.9821L71.75 40.4991C71.643 39.4281 72.425 38.4711 73.497 38.3631C74.569 38.2551 75.528 39.0361 75.633 40.1111L75.884 42.5921Z" fill="white"/>
<path fill-rule="evenodd" clip-rule="evenodd" d="M74.879 42.0841C74.934 42.6341 74.532 43.1261 73.982 43.1811C73.431 43.2361 72.938 42.8351 72.884 42.2841L72.755 41.0091C72.7 40.4581 73.102 39.9661 73.653 39.9111C74.205 39.8541 74.696 40.2571 74.752 40.8071L74.879 42.0841Z" fill="#1A1A1A"/>
<path fill-rule="evenodd" clip-rule="evenodd" d="M55.228 40.7401C43.082 41.1381 43.235 57.5721 55.894 58.7971C62.017 59.2061 70.184 55.1221 68.143 47.7731C66.509 42.0551 60.64 40.5271 55.228 40.7401Z" fill="white"/>
<path fill-rule="evenodd" clip-rule="evenodd" d="M51.402 44.4051C55.531 43.4861 63.192 42.2621 62.274 48.2341C61.814 50.9891 58.275 51.6991 55.382 51.1421C51.402 50.3761 51.555 46.0891 51.402 44.4051Z" fill="#1A1A1A"/>
<path d="M61.076 53.0332C60.569 53.7242 59.908 54.2451 59.026 53.9711C58.374 53.7681 57.966 53.0722 57.813 52.4482C57.879 52.0722 57.898 51.6881 57.873 51.3191C57.83 50.6791 56.829 50.6751 56.873 51.3191C56.943 52.3511 56.705 53.4122 55.719 53.9192C55.011 54.2822 54.254 53.8991 54.027 53.1771C53.835 52.5641 52.869 52.8261 53.063 53.4431C53.452 54.6821 54.633 55.3112 55.88 54.9242C56.533 54.7212 57 54.2912 57.325 53.7582C57.674 54.2732 58.153 54.6892 58.759 54.9362C60.042 55.4582 61.228 54.5071 61.938 53.5381C62.321 53.0171 61.453 52.5192 61.076 53.0332Z" fill="#1A1A1A"/>
</svg>
