<svg width="150" height="142" viewBox="0 0 150 142" fill="none" xmlns="http://www.w3.org/2000/svg">
<path fill-rule="evenodd" clip-rule="evenodd" d="M128.187 63.4987C125.908 66.0033 122.519 69.8378 119.323 70.8816L119.201 70.5989C103.826 56.2492 79.7831 74.9435 63.8497 69.5736C59.6543 68.1611 56.9496 29.805 55.9242 21.6057L54.718 21.2765C61.3785 21.5978 70.6857 16.0338 72.5415 10.4664C65.2376 6.81266 56.106 11.835 50.628 16.6299C46.5196 13.6601 57.7046 4.98755 53.5961 2.93157C49.0294 0.650857 48.1173 16.1717 43.5533 13.2036C41.0425 11.6058 50.8572 -0.263013 45.1501 0.195237C40.8134 0.651732 40.8134 10.922 37.6179 12.2915C35.1072 13.4318 32.1391 9.32337 29.8575 8.18301C26.8903 7.0409 24.1505 6.81089 21.1833 6.58527C21.6398 10.6937 24.6079 15.2578 28.4872 17.0837C23.694 17.9976 20.4994 25.758 15.9336 28.2696C10.9122 31.0077 6.34634 32.8337 8.17319 39.6802C10 45.1581 16.1636 46.302 21.1841 44.9316C25.2935 43.7895 31.9118 40.8214 35.5646 38.5416C36.0387 38.2572 37.5907 37.3925 39.2903 36.4014C40.3446 57.6872 43.3724 77.9924 45.402 99.2975C46.4274 111.598 43.3513 150.55 62.827 140.3C62.827 135.174 59.3427 115.061 63.8514 112.624C76.6719 105.692 72.5424 118.652 72.5424 124.804C72.5424 138.128 74.8073 142 85.0644 137.857C85.0644 137.857 83.6651 112.217 94.6007 109.549C110.691 105.626 112.027 114.676 114.077 124.923C116.127 133.124 114.444 139.682 124.328 136.2C128.887 134.595 122.278 77.7747 122.278 77.7747L121.692 76.4069C121.332 73.6688 124.704 71.8473 126.322 70.0266C127.722 68.6273 134.947 61.8667 135.181 60.4674C135.646 54.8745 129.12 62.5664 128.187 63.4987Z" fill="#F4C551"/>
<path fill-rule="evenodd" clip-rule="evenodd" d="M133.159 61.2443C131.759 60.7799 131.061 57.5151 131.759 55.6497C133.159 51.2225 138.054 52.154 141.55 50.9882C141.784 54.0195 141.55 57.7486 139.451 59.8459C137.819 61.4796 133.391 62.6446 132.226 60.3138" fill="#724322"/>
<path fill-rule="evenodd" clip-rule="evenodd" d="M7.76318 36.986C7.87292 37.8919 12.3571 36.6409 12.8136 35.7253C13.4237 34.3558 10.6426 32.96 9.425 32.5018C9.425 32.5018 7.38218 33.8318 7.76318 36.986Z" fill="#EF9D54"/>
<path d="M7.80529 40.4414C11.2237 42.4543 16.5015 41.2727 18.1361 37.5391C18.5856 36.512 17.073 35.6183 16.62 36.6525C15.3673 39.5135 11.3563 40.4949 8.69196 38.9253C7.714 38.3494 6.83173 39.8672 7.80529 40.4414Z" fill="#E5AC2E"/>
<path fill-rule="evenodd" clip-rule="evenodd" d="M26.6577 22.7847C26.317 23.2149 25.692 23.2886 25.2601 22.948C24.8282 22.6047 24.7562 21.9788 25.0977 21.5504L25.8851 20.5523C26.2275 20.1186 26.8534 20.0449 27.2853 20.3872C27.7164 20.7287 27.7892 21.3564 27.4477 21.7848L26.6577 22.7847Z" fill="#1A1A1A"/>
<path fill-rule="evenodd" clip-rule="evenodd" d="M32.2753 27.0072C31.9347 27.4374 31.3079 27.5111 30.8777 27.1696C30.4458 26.8281 30.3729 26.2022 30.7162 25.7721L31.5036 24.7739C31.8451 24.342 32.4719 24.2683 32.9029 24.6106C33.334 24.9504 33.406 25.578 33.0654 26.0082L32.2753 27.0072Z" fill="#1A1A1A"/>
<path fill-rule="evenodd" clip-rule="evenodd" d="M67.5797 73.754C65.7151 73.754 60.8201 74.2202 63.1517 77.0188C66.1804 80.5145 73.1744 73.9893 66.8792 73.754" fill="#EF9D54"/>
<path fill-rule="evenodd" clip-rule="evenodd" d="M92.6097 69.4638C90.7451 69.4638 85.8501 69.9282 88.18 72.7251C91.2113 76.2226 98.2027 69.6973 91.9101 69.4638" fill="#EF9D54"/>
<path fill-rule="evenodd" clip-rule="evenodd" d="M80.0754 73.1965C78.1564 73.1965 73.1174 73.5398 75.5184 75.6089C78.6375 78.1943 85.8352 73.3677 79.3582 73.1965" fill="#EF9D54"/>
<path fill-rule="evenodd" clip-rule="evenodd" d="M81.8286 78.3085C80.0404 78.3085 75.342 78.8036 77.577 81.7822C80.4881 85.5044 87.1985 78.5552 81.157 78.3085" fill="#EF9D54"/>
<path fill-rule="evenodd" clip-rule="evenodd" d="M105.138 69.3251C103.35 69.3251 98.6521 69.822 100.888 72.7971C103.795 76.5228 110.509 69.5736 104.466 69.3251" fill="#EF9D54"/>
<path fill-rule="evenodd" clip-rule="evenodd" d="M97.7233 75.7793C93.9151 75.7793 83.9188 76.5509 88.6768 81.1747C94.8667 86.9581 109.149 76.1664 96.2933 75.7793" fill="#EF9D54"/>
<path fill-rule="evenodd" clip-rule="evenodd" d="M50.3962 4.42837C49.751 5.52922 53.1378 6.87151 54.1649 5.84264C54.1649 5.84264 55.2271 3.51626 53.6742 2.80958C52.4215 2.24247 51.1178 3.19759 50.3962 4.42837Z" fill="#1A1A1A"/>
<path fill-rule="evenodd" clip-rule="evenodd" d="M42.6025 1.78508C41.9572 2.88593 45.6408 4.22819 46.667 3.20283C46.667 3.20283 47.7293 0.874738 46.1763 0.16805C44.9236 -0.399934 43.3223 0.555175 42.6025 1.78508Z" fill="#1A1A1A"/>
</svg>
