<svg width="150" height="142" viewBox="0 0 150 142" fill="none" xmlns="http://www.w3.org/2000/svg">
<path fill-rule="evenodd" clip-rule="evenodd" d="M47.9223 82.58C32.0123 85.364 27.2383 96.898 26.8413 112.41C26.4443 118.376 25.6483 129.114 32.0123 132.296C35.5923 134.286 47.1263 132.694 51.5013 131.899C53.0933 126.33 46.7283 125.137 45.1373 120.763C43.1483 115.593 45.1373 110.024 50.3083 108.433C64.2263 103.661 59.2903 124.273 59.6903 131.431C63.6653 132.227 67.4453 132.326 71.3863 131.104C71.7853 127.523 67.8073 108.831 75.3643 110.819C80.5353 112.011 77.7523 127.523 78.5443 131.898C82.1233 132.693 85.6773 132.625 89.2843 131.501C89.6813 123.546 87.7213 111.884 90.5063 104.726" fill="#FECA7B"/>
<path d="M27.7233 117.161C23.2103 117.43 18.0913 117.832 14.5353 114.516C9.0813 109.429 12.2373 101.572 17.8023 98.557C18.9363 97.943 17.9273 96.2161 16.7923 96.8301C10.2943 100.35 8.5403 106.166 11.1803 112.951C13.7713 119.608 21.8023 119.513 27.7223 119.161C29.0043 119.085 29.0123 117.085 27.7233 117.161Z" fill="#FECA7B"/>
<path fill-rule="evenodd" clip-rule="evenodd" d="M16.8152 98.553C16.0202 95.769 14.8252 88.212 20.3942 90.598C25.1662 92.586 20.3942 98.95 16.8152 98.553Z" fill="#FC5C30"/>
<path fill-rule="evenodd" clip-rule="evenodd" d="M97.2393 9C90.5073 9 87.6943 9.397 82.5243 10.591C72.5803 12.579 63.4343 18.943 56.2753 25.704C39.1723 42.408 36.3884 74.226 55.8774 90.931C72.9794 105.647 102.013 110.819 120.707 95.704C137.412 81.385 146.047 56.316 134.23 31.668C130.768 24.451 125.963 16.386 118.406 12.807C112.042 10.025 106.473 9 97.2393 9Z" fill="#FC5C30"/>
<path fill-rule="evenodd" clip-rule="evenodd" d="M125.877 51.955C125.082 47.978 122.694 44.398 119.513 41.614C127.867 30.224 106.875 25.731 104.951 34.687C105.11 34.791 105.196 34.852 105.196 34.852C105.062 35.166 104.941 35.473 104.815 35.782C104.812 35.871 104.797 35.953 104.797 36.045L104.748 35.947C101.426 44.153 100.599 50.734 97.4873 60.335C100.983 61.575 103.492 64.902 103.492 68.823C103.492 73.801 99.4554 77.838 94.4774 77.838H90.3753C85.3963 77.838 81.3603 73.802 81.3603 68.823C81.3603 64.635 84.2204 61.1251 88.0914 60.1121L81.3603 34.852C81.0583 34.903 80.7773 34.912 80.5373 34.852C76.5583 34.057 74.9674 27.296 68.6054 29.284C62.6394 31.273 63.0364 38.432 66.6154 42.409C49.6974 59.809 65.1103 86.118 82.7823 85.41C94.8673 84.927 108.776 88.545 117.923 79.398C125.082 72.637 128.264 61.898 125.877 51.955ZM79.5704 57.678C79.5704 58.855 78.6144 59.809 77.4384 59.809C76.2624 59.809 75.3074 58.855 75.3074 57.678V54.9571C75.3074 53.7811 76.2624 52.827 77.4384 52.827C78.6144 52.827 79.5704 53.7811 79.5704 54.9571V57.678ZM111.587 57.678C111.587 58.855 110.632 59.809 109.457 59.809C108.279 59.809 107.325 58.855 107.325 57.678V54.9571C107.325 53.7811 108.279 52.827 109.457 52.827C110.632 52.827 111.587 53.7811 111.587 54.9571V57.678Z" fill="#FECA7B"/>
<path d="M109.457 52.826C108.279 52.826 107.325 53.78 107.325 54.956V57.677C107.325 58.854 108.279 59.808 109.457 59.808C110.632 59.808 111.587 58.854 111.587 57.677V54.956C111.587 53.781 110.632 52.826 109.457 52.826Z" fill="#1A1A1A"/>
<path d="M77.4394 52.826C76.2634 52.826 75.3083 53.78 75.3083 54.956V57.677C75.3083 58.854 76.2634 59.808 77.4394 59.808C78.6154 59.808 79.5714 58.854 79.5714 57.677V54.956C79.5704 53.781 78.6154 52.826 77.4394 52.826Z" fill="#1A1A1A"/>
<path fill-rule="evenodd" clip-rule="evenodd" d="M90.3744 59.809H94.4764C95.5334 59.809 96.5444 60 97.4864 60.335C100.598 50.734 101.425 44.153 104.747 35.947C104.77 35.892 104.792 35.837 104.814 35.782C104.94 35.472 105.062 35.166 105.195 34.852C105.195 34.852 105.109 34.79 104.95 34.687C103.887 33.99 99.3954 31.304 93.2774 31.304C85.0324 31.304 81.3584 34.853 81.3584 34.853L88.0894 60.113C88.8204 59.922 89.5844 59.809 90.3744 59.809Z" fill="#F2E2BA"/>
<path d="M90.3744 59.809C89.5834 59.809 88.8204 59.921 88.0904 60.112C84.2194 61.125 81.3594 64.635 81.3594 68.823C81.3594 73.801 85.3964 77.838 90.3744 77.838H94.4764C99.4554 77.838 103.491 73.802 103.491 68.823C103.491 64.902 100.982 61.575 97.4864 60.335C96.5444 60 95.5334 59.809 94.4764 59.809H90.3744ZM93.2544 66.729C93.3084 67.9 93.2654 69.187 93.0164 70.38C93.0344 70.426 93.0544 70.472 93.0594 70.529C93.1914 72.097 94.3154 73.598 96.0364 73.476C97.8584 73.347 98.7464 71.747 98.9154 70.082C98.9794 69.447 99.9804 69.44 99.9154 70.082C99.6954 72.253 98.3254 74.634 95.8174 74.477C94.1964 74.375 93.0304 73.438 92.4524 72.105C91.9034 73.284 91.0334 74.209 89.6754 74.559C86.3424 75.42 85.0454 71.686 85.2064 69.055C85.2454 68.414 86.2464 68.41 86.2064 69.055C86.0944 70.894 86.8704 74.563 89.5594 73.547C92.0974 72.589 92.4454 69.256 92.2724 66.62L88.3544 60.305H97.2404L93.2544 66.729Z" fill="#F2E2BA"/>
<path d="M92.2725 66.622C92.4445 69.258 92.0975 72.59 89.5595 73.549C86.8705 74.565 86.0945 70.896 86.2065 69.057C86.2465 68.412 85.2455 68.416 85.2065 69.057C85.0455 71.687 86.3435 75.422 89.6755 74.561C91.0325 74.21 91.9025 73.285 92.4525 72.107C93.0305 73.44 94.1965 74.377 95.8175 74.479C98.3245 74.636 99.6945 72.255 99.9155 70.084C99.9805 69.442 98.9795 69.449 98.9155 70.084C98.7465 71.749 97.8585 73.349 96.0365 73.478C94.3155 73.6 93.1915 72.099 93.0595 70.531C93.0545 70.474 93.0345 70.428 93.0165 70.382C93.2655 69.189 93.3085 67.903 93.2545 66.731L97.2405 60.309H88.3545L92.2725 66.622Z" fill="#1A1A1A"/>
</svg>
