<svg width="150" height="142" viewBox="0 0 150 142" fill="none" xmlns="http://www.w3.org/2000/svg">
<path fill-rule="evenodd" clip-rule="evenodd" d="M52.152 113.049C43.088 139.238 68.189 137.264 66.271 115.526Z" fill="#FC5C30"/>
<path fill-rule="evenodd" clip-rule="evenodd" d="M87.93 114.394C89.209 119.507 92.384 129.63 99.418 128.987C110.925 127.71 101.976 112.368 99.418 108.532" fill="#FC5C30"/>
<path fill-rule="evenodd" clip-rule="evenodd" d="M38.683 76.5666C38.683 52.2696 38.683 12.6356 71.289 10.0776C89.188 8.79962 100.696 23.5026 104.53 39.4876C106.448 46.5176 105.81 52.9106 108.366 59.9446C110.924 66.3386 111.578 74.7706 112.855 81.8026C116.052 109.931 82.794 121.316 59.778 116.202C34.208 111.087 36.767 93.8256 38.682 73.3666" fill="#1A1A1A"/>
<path fill-rule="evenodd" clip-rule="evenodd" d="M41.466 50.0106C28.681 57.0416 23.84 72.7106 23 86.1126C30.672 85.4736 37.404 76.5666 39.961 69.5326" fill="#1A1A1A"/>
<path fill-rule="evenodd" clip-rule="evenodd" d="M104.065 43.8156C117.8 48.7396 125.053 63.4446 128 76.5466C120.322 77.1246 112.269 69.3936 108.635 62.8526" fill="#1A1A1A"/>
<path fill-rule="evenodd" clip-rule="evenodd" d="M69.369 40.9326C71.289 40.9326 73.798 39.9256 76.358 39.9256C73.161 30.9776 77.682 19.6686 87.909 22.8626C97.499 25.4206 99.418 38.8476 100.697 47.1566C102.615 57.3876 113.949 101.336 97.703 110.841C91.957 114.204 86.473 115.406 82.156 116.312C70.423 118.775 68.454 117.616 64.255 116.977C54.288 115.454 43.798 103.419 43.159 95.1056C42.519 82.9606 46.356 69.5336 46.995 56.7476C46.995 49.0766 47.635 25.4216 58.503 24.7836C64.894 24.1426 69.369 35.8176 69.369 40.9326Z" fill="white"/>
<path fill-rule="evenodd" clip-rule="evenodd" d="M64.255 41.4046C70.004 40.4756 75.46 39.4876 82.156 39.4876C81.515 44.5986 77.681 50.9936 74.485 54.8286C71.289 51.6326 66.812 45.8786 64.255 41.4046Z" fill="#FC5C30"/>
<path fill-rule="evenodd" clip-rule="evenodd" d="M61.077 38.7446C61.181 39.7876 60.422 40.7186 59.384 40.8226C58.341 40.9266 57.411 40.1686 57.305 39.1256L57.065 36.7166C56.96 35.6766 57.721 34.7476 58.761 34.6426C59.802 34.5376 60.729 35.2976 60.835 36.3386L61.077 38.7446Z" fill="#1A1A1A"/>
<path fill-rule="evenodd" clip-rule="evenodd" d="M89.328 37.4006C89.432 38.4436 88.673 39.3746 87.635 39.4786C86.591 39.5826 85.662 38.8246 85.556 37.7816L85.316 35.3726C85.211 34.3326 85.972 33.4036 87.012 33.2986C88.052 33.1936 88.98 33.9536 89.086 34.9946L89.328 37.4006Z" fill="#1A1A1A"/>
</svg>
