<svg width="150" height="142" viewBox="0 0 150 142" fill="none" xmlns="http://www.w3.org/2000/svg">
<path fill-rule="evenodd" clip-rule="evenodd" d="M50.1819 99.6431C49.7979 105.825 48.6499 119.141 51.7129 123.897C58.9839 134.36 61.6649 116.288 62.0479 110.58" fill="#DDB9AF"/>
<path fill-rule="evenodd" clip-rule="evenodd" d="M82.715 109.63C83.096 113.434 83.096 121.994 85.395 124.373C92.283 132.933 93.4309 118.665 94.1989 113.91" fill="#DDB9AF"/>
<path fill-rule="evenodd" clip-rule="evenodd" d="M46.3539 34.1931C39.0819 29.9831 55.9229 10.0801 65.8749 22.7101C66.2579 12.7591 84.2439 10.4621 86.5419 20.4141C94.1979 12.3621 105.805 21.8111 103.768 28.0691C111.746 21.8121 129.028 34.9591 120.989 45.2931C131.709 43.3791 134.387 64.0481 124.054 67.4931C132.472 72.0861 130.175 90.8411 119.077 88.1611C120.988 96.1991 113.335 107.682 104.531 102.705C104.656 109.631 102.724 113.732 95.4549 115.645C87.4169 117.559 84.2439 115.336 80.4189 109.596C77.7379 118.343 54.3919 120.695 54.3919 105.385C49.7109 108.204 46.7639 108.122 42.9389 106.209C38.3449 103.53 34.4899 95.0511 39.0819 90.8411C28.8729 94.1531 21.0919 79.3581 31.8089 73.2341C14.9689 70.9381 16.4989 41.4651 34.1059 44.5281C28.5849 36.4521 39.2059 28.4151 46.3539 34.1931Z" fill="#F7F0E2"/>
<path fill-rule="evenodd" clip-rule="evenodd" d="M49.7979 56.3922C39.8479 89.3092 104.151 98.4952 101.088 58.6892L93.3179 45.3502L63.3489 44.7772L49.7979 56.3922Z" fill="#EDD4CC"/>
<path fill-rule="evenodd" clip-rule="evenodd" d="M61.2809 46.7922C52.8619 46.0262 31.5229 48.0542 38.3169 58.2742C43.1229 65.5042 56.6879 52.9162 61.2809 46.7922Z" fill="#DDB9AF"/>
<path fill-rule="evenodd" clip-rule="evenodd" d="M94.1989 48.9372C96.4969 55.8262 104.62 66.4022 110.276 61.1852C116.563 55.3802 101.088 48.9372 94.1989 48.9372Z" fill="#DDB9AF"/>
<path fill-rule="evenodd" clip-rule="evenodd" d="M60.9679 40.1982C53.4379 50.2422 69.3909 58.5702 71.6879 45.5562C72.4519 52.4452 80.8729 57.0382 83.9339 48.6192C90.8249 65.4592 106.449 39.8262 87.3779 36.4172C80.8149 35.2432 66.1099 33.3442 60.9679 40.1982Z" fill="#EFE3CE"/>
<path fill-rule="evenodd" clip-rule="evenodd" d="M67.4509 60.4291C67.4509 61.5621 66.53 62.4792 65.4 62.4792C64.268 62.4792 63.3499 61.5611 63.3499 60.4291V57.8091C63.3499 56.6771 64.268 55.7592 65.4 55.7592C66.53 55.7592 67.4509 56.6771 67.4509 57.8091V60.4291Z" fill="#1A1A1A"/>
<path fill-rule="evenodd" clip-rule="evenodd" d="M86.1359 61.7602C86.1359 62.8932 85.2189 63.8112 84.0869 63.8112C82.9539 63.8112 82.0369 62.8932 82.0369 61.7602V59.1412C82.0369 58.0092 82.9539 57.0912 84.0869 57.0912C85.2189 57.0912 86.1359 58.0092 86.1359 59.1412V61.7602Z" fill="#1A1A1A"/>
<path d="M82.4329 74.6311C82.3339 73.9951 81.3699 74.2661 81.4679 74.8971C82.2789 80.1071 73.2059 79.3351 74.0129 74.1311C74.0139 74.1241 74.011 74.1181 74.012 74.1111C74.017 74.0731 74.0269 74.0361 74.0309 73.9981C74.0629 73.6881 73.8449 73.5331 73.6049 73.5231L73.6019 73.5221C73.5929 73.5221 73.585 73.5191 73.577 73.5201C73.344 73.4671 73.0969 73.5591 73.0489 73.8651C73.0429 73.9041 73.0429 73.9401 73.0369 73.9781C73.0359 73.9851 73.0319 73.9901 73.0309 73.9981C72.7609 76.5791 70.209 77.8801 67.845 77.9491C64.862 78.0351 63.4499 75.7341 64.0609 72.9831C64.1999 72.3551 63.2359 72.0881 63.0959 72.7171C62.3509 76.0761 64.0239 78.7111 67.5419 78.9441C69.7829 79.0911 72.055 78.0461 73.233 76.2331C74.814 80.7401 83.3589 80.5911 82.4329 74.6311Z" fill="#D8AA9E"/>
<path fill-rule="evenodd" clip-rule="evenodd" d="M70.7629 70.6862C73.0589 71.0692 76.8839 71.0691 79.1819 71.8341C76.1209 75.6621 71.9119 76.0442 70.7629 70.6862Z" fill="#E0B6BB"/>
</svg>
