<svg width="150" height="142" viewBox="0 0 150 142" fill="none" xmlns="http://www.w3.org/2000/svg">
<path fill-rule="evenodd" clip-rule="evenodd" d="M89.6629 25.9838C107.965 5.61478 137.603 25.6618 111.238 45.6658Z" fill="#95AD31"/>
<path fill-rule="evenodd" clip-rule="evenodd" d="M111.57 23.7378C111.899 24.5188 111.535 25.4218 110.754 25.7518C109.973 26.0818 109.068 25.7168 108.738 24.9338L107.972 23.1248C107.64 22.3418 108.006 21.4388 108.787 21.1088C109.57 20.7788 110.473 21.1438 110.803 21.9248L111.57 23.7378Z" fill="#1A1A1A"/>
<path d="M113.329 31.2477C113.009 31.2477 112.684 31.2327 112.352 31.2027C112.077 31.1777 111.874 30.9327 111.9 30.6587C111.926 30.3837 112.178 30.1888 112.444 30.2068C117.424 30.6708 121.069 26.9877 121.105 26.9507C121.297 26.7557 121.614 26.7517 121.812 26.9427C122.009 27.1347 122.013 27.4517 121.821 27.6487C121.668 27.8057 118.252 31.2477 113.329 31.2477Z" fill="#708C18"/>
<path fill-rule="evenodd" clip-rule="evenodd" d="M67.8899 36.2708C60.8059 27.4148 64.3478 7.34076 79.6988 10.2938C92.6868 12.6548 79.1078 17.9677 75.5658 21.5107C72.0218 25.6437 70.2519 31.5458 74.9739 36.8608" fill="#95AD31"/>
<path fill-rule="evenodd" clip-rule="evenodd" d="M93.4069 106.098C99.9739 115.346 95.2929 135.184 80.1359 131.36C67.3039 128.262 81.1639 123.731 84.9039 120.397C88.6749 116.471 90.7799 110.678 86.3679 105.106" fill="#95AD31"/>
<path fill-rule="evenodd" clip-rule="evenodd" d="M113.299 71.4668C124.362 73.9608 140.86 61.9878 131.487 49.4788C123.68 38.8348 124.844 53.3678 123.211 58.1058C121.044 63.0998 116.512 67.2758 109.667 65.3558" fill="#95AD31"/>
<path fill-rule="evenodd" clip-rule="evenodd" d="M36.4349 70.8547C25.2899 68.7587 9.23289 81.3157 19.0509 93.4817C27.2369 103.839 25.5498 89.3548 27.0108 84.5638C28.9968 79.4958 33.3758 75.1558 40.2868 76.8298" fill="#95AD31"/>
<path fill-rule="evenodd" clip-rule="evenodd" d="M67.5269 30.5837C51.6989 39.6207 35.6449 54.2007 34.4649 73.0917C32.1029 108.518 83.4689 125.049 102.952 97.3008C111.806 84.9008 117.712 67.1878 114.169 52.4278C111.217 42.9828 98.8169 24.0898 87.0109 25.2698C87.0109 25.2698 78.0029 24.6007 67.5269 30.5837Z" fill="#A6B741"/>
<path d="M68.1249 33.6798C53.5129 41.8168 38.8669 55.3538 37.7829 72.6898C35.6149 105.2 82.7539 120.37 100.634 94.9048C108.762 83.5278 114.178 67.2738 110.929 53.7268C108.219 45.0568 96.8419 27.7188 86.0059 28.8048C86.0059 28.8048 76.9699 28.7538 68.1249 33.6798Z" fill="#789325"/>
<path d="M98.9869 59.2628L111.442 56.1218L111.198 55.1528L98.6329 58.3198L91.0659 51.8868L83.2159 44.6907L86.4959 28.9058L85.5169 28.7028L82.2599 44.3677H68.2739L63.2769 36.5908L62.4349 37.1318L67.4879 44.9958L66.1319 60.8888L51.5379 62.4268L44.5949 54.5497L43.8449 55.2118L50.8209 63.1248L49.6179 80.5757H38.3559V81.5757H49.8799L63.7069 95.1608V106.303H64.7069V95.3768L82.1219 92.5608L94.4979 101.502L95.0839 100.691L82.7479 91.7778V76.9108L97.8079 72.6238L108.358 79.9688L108.93 79.1487L98.4119 71.8257L98.9869 59.2628ZM68.4589 45.3677H82.4719L90.4039 52.6357L97.9959 59.0898L97.4179 71.6948L82.3889 75.9728L67.1139 61.1478L68.4589 45.3677ZM51.8029 63.4037L66.4129 61.8638L81.7469 76.7448V91.6078L64.3759 94.4167L50.5979 80.8807L51.8029 63.4037Z" fill="#71751C"/>
</svg>
