<svg width="150" height="142" viewBox="0 0 150 142" fill="none" xmlns="http://www.w3.org/2000/svg">
<path fill-rule="evenodd" clip-rule="evenodd" d="M93.0236 74.3825C93.5422 67.1036 106.544 67.1036 111.223 70.2231C117.983 74.9031 123.703 105.583 137.743 93.6231C137.743 99.8629 130.464 100.902 125.783 100.381C118.504 99.8622 117.983 95.7014 112.783 91.0221C105.502 84.2624 95.1033 86.3428 93.0236 74.3825Z" fill="#A7CBD3"/>
<path fill-rule="evenodd" clip-rule="evenodd" d="M54.839 37.6237C56.0004 37.3347 57.3122 37.1468 58.6315 37.155C56.7103 32.0863 53.0578 30.0168 46.9322 28.6245L47.7308 31.6463C51.1435 32.777 54.7679 34.8246 54.839 37.6237Z" fill="#A7CBD3"/>
<path fill-rule="evenodd" clip-rule="evenodd" d="M57.3539 42.8837C54.6278 56.4229 50.7062 68.0928 68.2743 67.3604C70.1238 67.2484 71.8823 67.137 73.5658 67.0824L73.5699 67.0817C68.7163 63.6151 60.7843 65.0225 59.7451 58.7834C59.3973 55.6639 60.6579 52.5026 61.1313 49.7698C61.6765 46.6147 61.0405 45.0966 60.3914 43.4057C59.4137 43.4576 58.3862 43.254 57.3539 42.8837Z" fill="#A7CBD3"/>
<path fill-rule="evenodd" clip-rule="evenodd" d="M99.9903 108.379C106.182 108.662 116.115 104.334 109.63 98.0025C102.147 104.776 97.6831 104.061 92.3466 94.9923C101.848 91.3842 96.9418 79.1465 91.8984 73.6781C86.4218 67.6289 80.6664 66.8508 73.5665 67.083C71.883 67.1377 70.1244 67.2491 68.275 67.3611C50.7069 68.0935 54.6285 56.4236 57.3545 42.8844C58.3869 43.2547 59.4151 43.4583 60.3928 43.4064C62.2176 43.3087 63.8628 42.3064 65.0038 39.73C63.3996 37.8266 61.0029 37.1707 58.6322 37.1557C57.3129 37.1468 56.0011 37.3354 54.8396 37.6244C54.7686 34.8252 51.1442 32.7776 47.7315 31.6469C45.9832 31.0676 44.2902 30.7287 43.1601 30.6536C42.2966 27.5887 39.0424 25.7939 36.1688 24.7158C34.5974 27.2375 35.3346 30.0667 36.8452 32.3274C32.183 29.9027 27.5952 37.7091 23.5752 39.081C21.1703 39.7457 18.7333 39.2039 16.5989 40.9516C14.1674 43.0094 13.696 45.8687 14.854 48.624C19.0086 57.2974 32.7466 52.2895 39.9928 51.5024C40.1342 52.3441 39.9818 53.5015 39.7441 53.6279C38.019 56.509 31.6938 65.5185 30.1122 68.9749C27.2365 74.5943 28.6788 77.9045 24.6499 81.3636C19.6126 85.6896 15.0016 81.9477 12.7046 89.8702C10.9809 95.2027 12.1389 102.258 19.3359 99.2268C17.8882 88.5701 22.0626 85.6869 32.4296 85.5359C35.8006 91.7675 25.8134 95.7643 24.8139 103.974C24.3828 107.142 25.5408 114.2 29.2841 114.484C35.9079 114.046 29.8553 106.996 30.861 103.682C35.0272 91.005 43.8194 99.2063 51.164 101.648C59.232 104.524 69.3128 103.22 76.9436 101.917C78.1023 108.972 83.003 116.313 89.7743 118.9C94.5274 120.768 108.065 121.046 104.89 113.27C93.3714 116.16 85.1599 112.711 85.2924 98.5969C92.0617 98.7362 92.5003 107.809 99.9903 108.379Z" fill="#F7F0E2"/>
<path fill-rule="evenodd" clip-rule="evenodd" d="M42.865 34.9666C43.9684 30.7007 44.1009 26.3384 45.6265 22C47.9098 23.6985 47.8224 29.8767 48.0109 32.5365C48.2548 35.0131 48.6361 35.7298 46.0474 36.3392C44.5423 36.6802 43.3883 36.5298 42.865 34.9666Z" fill="#CCB5EA"/>
<path fill-rule="evenodd" clip-rule="evenodd" d="M18.9444 39.8065C22.7198 39.0686 23.265 42.7874 23.4269 46.8388C23.4878 49.2594 23.4051 52.2321 20.7064 53.2091C20.7064 53.2091 10.9235 52.2055 14.2507 43.3264C14.7638 41.9552 16.2669 40.3299 18.9444 39.8065Z" fill="#E0B3BB"/>
<path d="M14.1968 50.384C16.6618 51.3474 18.9991 51.0071 20.5424 48.7252C21.0378 47.9928 19.8531 47.3102 19.3625 48.0351C18.1553 49.819 16.3994 49.7855 14.5595 49.0668C13.7383 48.745 13.3858 50.067 14.1968 50.384Z" fill="#CC8D9A"/>
<path fill-rule="evenodd" clip-rule="evenodd" d="M30.8733 39.0939C30.5556 39.497 29.9707 39.564 29.5697 39.2463C29.1666 38.9286 29.0997 38.3458 29.4173 37.9427L30.1525 37.0129C30.4715 36.6111 31.0557 36.5428 31.4574 36.8605C31.8585 37.1796 31.9275 37.7623 31.6084 38.1654L30.8733 39.0939Z" fill="#1A1A1A"/>
<path fill-rule="evenodd" clip-rule="evenodd" d="M34.8639 43.0839C34.5455 43.487 33.9614 43.5553 33.5583 43.2376C33.1566 42.9186 33.0889 42.3358 33.4066 41.9327L34.1431 41.0028C34.4608 40.6011 35.0443 40.5328 35.4481 40.8518C35.8491 41.1682 35.9167 41.7523 35.5984 42.1541L34.8639 43.0839Z" fill="#1A1A1A"/>
</svg>
